<svg xmlns="http://www.w3.org/2000/svg" xmlns:xlink="http://www.w3.org/1999/xlink" width="2540" zoomAndPan="magnify" viewBox="0 0 1904.88 526.499984" height="702" preserveAspectRatio="xMidYMid meet" version="1.0"><path fill="#27bbbd" d="M 326.558594 125.222656 C 332.414062 127.773438 338.0625 130.546875 343.730469 133.492188 L 349.703125 136.453125 C 364.285156 143.96875 376.652344 153.019531 389.058594 163.710938 L 394.445312 168.296875 C 422.023438 192.390625 443.125 220.113281 462.566406 250.875 C 474.179688 269.21875 486.675781 285.796875 501.292969 301.847656 L 505.636719 306.730469 C 524.59375 326.960938 549.65625 342.589844 575.621094 352.03125 C 595.351562 356.183594 613.339844 356.75 632.953125 351.492188 C 649.144531 345.605469 662.363281 336.121094 673.960938 323.433594 C 683.695312 310.449219 690.757812 296.339844 693.386719 280.265625 C 694.984375 261.238281 694.453125 243.679688 687.476562 225.613281 C 683.253906 216.589844 678.027344 208.1875 671.804688 200.402344 C 670.773438 199.078125 669.742188 197.75 668.675781 196.382812 C 657.359375 183.527344 642.035156 176.617188 626.476562 170.1875 C 619.265625 167.894531 612.421875 166.5625 604.894531 165.871094 L 600.0625 165.339844 C 575.96875 164 550.703125 171.554688 529.21875 182.058594 C 508.167969 192.835938 489.492188 207.589844 471.480469 222.796875 L 466.757812 226.304688 C 461.769531 225.765625 461.769531 225.765625 458.125 224.144531 C 466.113281 201.050781 487.957031 181.984375 505.609375 165.871094 C 525.867188 148.949219 552.367188 135.695312 578.242188 130.121094 C 605.996094 126.492188 632.488281 127.949219 658.851562 137.8125 C 682.890625 148.320312 702.976562 164.410156 719.0625 185.074219 C 735.726562 209.628906 742.746094 235.167969 745.785156 264.4375 C 746.773438 287.972656 741.277344 311.738281 730.890625 332.738281 C 717.566406 358.21875 700.25 376.765625 676.121094 392.5 C 653.054688 406.617188 626.988281 413.039062 600.125 414.152344 C 565.453125 413.867188 534.816406 403.417969 504.902344 386.53125 C 471.824219 366.976562 440.070312 338.613281 419.273438 306.164062 L 419.273438 301.847656 L 414.957031 301.847656 L 413.265625 306.5625 C 401.980469 332.71875 376.363281 358.46875 353.898438 375.511719 C 329.179688 392.574219 302.675781 405.871094 272.507812 409.769531 C 243.054688 411.761719 216.585938 407.792969 189.679688 395.199219 C 165.148438 381.921875 144.71875 362.601562 129.515625 339.21875 C 115.769531 315.058594 109.976562 288.171875 109.949219 260.585938 C 110.464844 231.660156 119.53125 205.691406 134.371094 180.980469 C 150.675781 157.019531 171.597656 139.6875 197.34375 126.675781 C 207.597656 121.945312 218.394531 118.890625 229.339844 116.226562 L 234.210938 114.980469 C 265.667969 110.140625 297.011719 113.882812 326.558594 125.222656 M 215.933594 192.328125 C 203.789062 199.910156 195.269531 208.335938 188.3125 220.875 C 178.410156 239.78125 174.703125 253.335938 174.925781 274.648438 C 175.9375 291.945312 181.820312 305.914062 191.078125 320.4375 C 202.023438 335.570312 214.613281 345.804688 231.496094 353.648438 L 235.726562 355.667969 C 249.765625 361.652344 264.144531 362.855469 279.277344 361.820312 C 311.105469 357.789062 339.621094 343.832031 365.316406 325.050781 C 376.554688 316.425781 386.984375 307.152344 397.300781 297.464844 C 402.007812 293.214844 402.007812 293.214844 406.324219 291.058594 C 405.035156 282.128906 400.015625 275.65625 394.859375 268.53125 L 391.96875 264.519531 C 367.957031 231.960938 339.132812 205.46875 302.722656 187.453125 C 272.878906 175.253906 244.253906 177.03125 215.933594 192.328125 M 410.640625 293.214844 L 414.957031 297.53125 L 414.957031 293.214844 Z M 410.640625 293.214844 " fill-opacity="1" fill-rule="nonzero"/><path fill="#fbb308" d="M 326.558594 125.222656 C 332.414062 127.773438 338.0625 130.546875 343.730469 133.492188 L 349.703125 136.453125 C 364.28125 143.964844 376.664062 153.011719 389.058594 163.710938 L 394.898438 168.753906 C 403.894531 176.679688 411.960938 184.394531 419.273438 193.929688 L 412.800781 198.246094 C 406.070312 196.960938 399.726562 194.929688 393.179688 192.917969 C 387.132812 191.355469 387.132812 191.355469 382.210938 193.007812 C 376.878906 197.167969 374.347656 201.628906 371.117188 207.554688 L 367.632812 213.734375 C 364.902344 219.648438 364.902344 219.648438 365.6875 225.613281 C 368.207031 232.671875 372.765625 236.476562 378.265625 241.414062 L 373.949219 245.730469 L 371.328125 242.558594 C 350.734375 218.277344 325.777344 197.925781 295.503906 186.914062 C 277.71875 181.890625 259.878906 179.171875 241.699219 183.382812 C 225.664062 188.59375 209.785156 195.863281 198.253906 208.472656 C 189.597656 220.726562 179.953125 237.210938 177.539062 252.207031 C 176.351562 270.347656 176.644531 287.195312 184.011719 304.007812 C 191.101562 318.25 199.566406 330.722656 212.070312 340.699219 C 218.324219 344.84375 224.71875 348.285156 231.496094 351.492188 L 235.738281 353.515625 C 249.777344 359.488281 264.144531 360.699219 279.277344 359.660156 C 311.105469 355.628906 339.621094 341.675781 365.316406 322.894531 C 376.554688 314.304688 386.78125 304.972656 396.882812 295.09375 L 402.007812 291.058594 L 410.640625 291.058594 L 414.957031 297.53125 C 414.597656 305.230469 413.160156 309.882812 409.171875 316.503906 C 382.875 350.476562 354.179688 381.90625 313.527344 398.582031 C 287.46875 408.363281 261.207031 413.078125 233.421875 409.121094 C 206.277344 404.097656 182.257812 393.527344 161.089844 375.65625 C 138.046875 354.394531 124.441406 332.476562 114.902344 302.960938 C 108.164062 278.800781 108.054688 252.429688 114 228.058594 C 121.554688 199.78125 135.8125 175.957031 155.988281 154.84375 C 175.101562 136.574219 197.929688 124.828125 223.207031 117.71875 L 229.339844 116.226562 L 234.210938 114.980469 C 265.667969 110.140625 297.011719 113.882812 326.558594 125.222656 " fill-opacity="1" fill-rule="nonzero"/><path fill="#85d759" d="M 382.582031 189.613281 C 388.105469 189.847656 388.105469 189.847656 394.320312 191.230469 L 400.515625 192.546875 C 404.015625 193.378906 407.507812 194.246094 410.988281 195.175781 C 415.332031 196.328125 415.332031 196.328125 421.433594 196.085938 C 438.597656 210.644531 449.917969 231.109375 461.777344 249.90625 C 483.84375 284.753906 510.539062 317.550781 546.617188 338.542969 C 543.9375 354.339844 537.125 366.964844 527.191406 379.550781 L 520.71875 381.710938 C 515.367188 378.613281 515.367188 378.613281 509.523438 374.292969 L 503.628906 369.980469 L 499.132812 366.601562 C 504.792969 372.589844 509.957031 377.414062 516.941406 381.84375 L 522.875 386.027344 C 524.765625 390.882812 524.765625 390.882812 525.035156 394.660156 C 502.613281 387.910156 484.429688 372.886719 466.757812 357.96875 L 461.625 353.640625 C 445.625 339.804688 430.734375 324.046875 419.273438 306.164062 L 419.273438 301.847656 L 414.957031 301.847656 L 414.957031 293.214844 L 410.9375 292.660156 L 406.324219 291.058594 C 403.804688 287.429688 403.804688 287.429688 401.605469 282.691406 C 395.910156 271.539062 388.386719 262.648438 380.1875 253.242188 C 376.265625 248.097656 375.257812 245.371094 373.949219 239.253906 L 368.285156 232.917969 L 363.15625 226.304688 C 363.828125 218.378906 366.550781 212.390625 370.441406 205.53125 L 373.1875 200.585938 C 378.390625 192.5625 378.390625 192.5625 382.582031 189.613281 " fill-opacity="1" fill-rule="nonzero"/><path fill="#d2dd24" d="M 319.988281 122.703125 C 328.183594 125.847656 335.949219 129.449219 343.730469 133.492188 L 349.703125 136.453125 C 364.28125 143.964844 376.664062 153.011719 389.058594 163.710938 L 394.898438 168.753906 C 403.894531 176.679688 411.960938 184.394531 419.273438 193.929688 L 412.800781 198.246094 C 406.070312 196.960938 399.726562 194.929688 393.179688 192.917969 C 387.132812 191.355469 387.132812 191.355469 382.210938 193.007812 C 376.878906 197.167969 374.347656 201.628906 371.117188 207.554688 L 367.632812 213.734375 C 364.902344 219.648438 364.902344 219.648438 365.6875 225.613281 C 368.207031 232.671875 372.765625 236.476562 378.265625 241.414062 L 373.949219 245.730469 L 371.328125 242.558594 C 350.734375 218.28125 325.769531 197.890625 295.488281 186.914062 C 273.390625 180.65625 253.875 180.460938 231.496094 185.296875 L 231.496094 180.980469 L 225.023438 178.820312 C 221.632812 172.777344 221.632812 172.777344 218.277344 165.195312 L 214.886719 157.664062 C 210.589844 147.125 208.683594 138.5 209.914062 127.019531 C 214.097656 122.027344 214.097656 122.027344 220.703125 118.386719 C 252.6875 108.542969 288.75 112.03125 319.988281 122.703125 " fill-opacity="1" fill-rule="nonzero"/><path fill="#2f3138" d="M 1020.378906 274.058594 C 1027.121094 276.417969 1029.691406 279.207031 1034.410156 284.582031 C 1037.214844 289.285156 1039.855469 294.082031 1042.335938 298.964844 L 1044.476562 303.109375 C 1045.957031 305.980469 1047.425781 308.859375 1048.890625 311.738281 C 1051.144531 316.15625 1053.414062 320.566406 1055.695312 324.96875 C 1057.136719 327.765625 1058.570312 330.5625 1060.003906 333.363281 L 1062.070312 337.363281 C 1066.785156 346.675781 1066.785156 346.675781 1066.785156 351.492188 L 1071.101562 351.492188 L 1071.066406 344.789062 C 1071.03125 336.609375 1071 328.433594 1070.984375 320.257812 C 1070.972656 316.710938 1070.957031 313.167969 1070.9375 309.625 C 1070.910156 304.539062 1070.902344 299.457031 1070.890625 294.371094 L 1070.855469 289.539062 C 1070.855469 285.726562 1070.96875 281.914062 1071.101562 278.105469 L 1073.257812 275.949219 C 1085.640625 275.359375 1085.640625 275.359375 1090.527344 275.949219 L 1094.84375 280.265625 C 1095.417969 285.328125 1095.417969 285.328125 1095.46875 291.746094 L 1095.554688 299.015625 L 1095.566406 306.898438 L 1095.613281 314.964844 C 1095.632812 320.601562 1095.644531 326.238281 1095.644531 331.875 C 1095.644531 337.664062 1095.671875 343.453125 1095.730469 349.242188 C 1095.808594 357.566406 1095.832031 365.886719 1095.839844 374.214844 L 1095.929688 382.082031 L 1095.890625 389.375 L 1095.910156 395.796875 L 1094.84375 401.136719 C 1090.867188 405.105469 1090.867188 405.105469 1086.210938 407.609375 C 1079.734375 407.609375 1079.734375 407.609375 1073.257812 405.453125 C 1067.082031 398.582031 1062.613281 391.476562 1058.421875 383.277344 L 1055.082031 376.804688 L 1051.675781 370.109375 C 1049.429688 365.726562 1047.183594 361.347656 1044.929688 356.972656 L 1041.945312 351.117188 C 1038.160156 343.945312 1034.148438 336.933594 1030.09375 329.90625 L 1029.996094 336.578125 C 1029.871094 344.726562 1029.707031 352.875 1029.527344 361.027344 C 1029.453125 364.554688 1029.394531 368.082031 1029.34375 371.613281 C 1029.269531 376.683594 1029.164062 381.75 1029.039062 386.820312 L 1028.996094 391.617188 C 1028.867188 396.066406 1028.867188 396.066406 1027.933594 403.292969 L 1021.457031 407.609375 C 1014.714844 406.9375 1014.714844 406.9375 1008.507812 405.453125 L 1006.351562 403.292969 C 1006.164062 399.382812 1006.082031 395.472656 1006.105469 391.554688 L 1006.105469 383.964844 L 1006.136719 375.695312 L 1006.148438 367.289062 C 1006.15625 359.894531 1006.175781 352.503906 1006.203125 345.113281 C 1006.222656 337.574219 1006.234375 330.039062 1006.246094 322.5 C 1006.265625 307.703125 1006.300781 292.90625 1006.351562 278.105469 C 1014.308594 273.753906 1014.308594 273.753906 1020.378906 274.058594 M 890.878906 274.058594 C 897.617188 276.417969 900.191406 279.207031 904.90625 284.582031 C 907.710938 289.285156 910.355469 294.082031 912.832031 298.964844 L 914.972656 303.109375 C 916.453125 305.980469 917.925781 308.859375 919.390625 311.738281 C 921.644531 316.15625 923.910156 320.566406 926.195312 324.96875 C 927.632812 327.765625 929.070312 330.5625 930.503906 333.363281 L 932.570312 337.363281 C 937.28125 346.675781 937.28125 346.675781 937.28125 351.492188 L 941.597656 351.492188 L 941.597656 278.105469 L 950.234375 273.789062 C 955.898438 274.328125 955.898438 274.328125 961.023438 275.949219 L 965.339844 280.265625 C 965.917969 285.328125 965.917969 285.328125 965.96875 291.746094 L 966.054688 299.015625 L 966.066406 306.898438 L 966.109375 314.964844 C 966.132812 320.601562 966.140625 326.238281 966.140625 331.875 C 966.140625 337.664062 966.171875 343.453125 966.226562 349.242188 C 966.308594 357.566406 966.328125 365.886719 966.335938 374.214844 L 966.429688 382.082031 L 966.390625 389.375 L 966.40625 395.796875 L 965.339844 401.136719 C 961.363281 405.105469 961.363281 405.105469 956.707031 407.609375 C 950.234375 407.609375 950.234375 407.609375 943.757812 405.453125 C 936.703125 397.769531 931.964844 389.265625 927.351562 379.988281 L 925.242188 375.839844 C 922.285156 370.03125 919.363281 364.203125 916.433594 358.378906 C 914.277344 354.113281 912.117188 349.847656 909.949219 345.589844 L 906.074219 337.886719 L 902.75 332.066406 L 898.433594 329.90625 L 898.535156 336.578125 C 898.648438 344.726562 898.730469 352.875 898.789062 361.027344 C 898.820312 364.554688 898.863281 368.082031 898.917969 371.613281 C 899 376.683594 899.035156 381.75 899.0625 386.820312 L 899.164062 391.617188 C 899.164062 396.066406 899.164062 396.066406 898.433594 403.292969 L 891.957031 407.609375 C 885.210938 406.9375 885.210938 406.9375 879.007812 405.453125 L 876.847656 403.292969 C 876.660156 399.382812 876.578125 395.472656 876.601562 391.554688 L 876.601562 383.964844 L 876.636719 375.695312 L 876.648438 367.289062 C 876.65625 359.894531 876.671875 352.503906 876.699219 345.113281 C 876.71875 337.574219 876.734375 330.039062 876.742188 322.5 C 876.765625 307.703125 876.800781 292.90625 876.847656 278.105469 C 884.808594 273.753906 884.808594 273.753906 890.878906 274.058594 " fill-opacity="1" fill-rule="nonzero"/><path fill="#fa5b1a" d="M 402.007812 291.058594 L 410.640625 291.058594 L 414.957031 297.53125 C 414.597656 305.230469 413.160156 309.882812 409.171875 316.503906 C 382.875 350.476562 354.179688 381.90625 313.527344 398.582031 C 295.445312 405.371094 278.171875 410.121094 258.746094 409.90625 L 251.816406 409.84375 L 246.605469 409.769531 L 248.765625 401.136719 L 237.972656 398.976562 C 235.234375 391.089844 236.339844 384.96875 237.839844 376.851562 L 239.113281 369.804688 L 240.128906 364.441406 L 244.445312 364.441406 L 244.445312 360.125 L 249.597656 360.277344 C 283.027344 360.832031 310.875 354.449219 340.628906 339.082031 C 361.621094 327.140625 379.691406 311.902344 396.882812 295.09375 Z M 402.007812 291.058594 " fill-opacity="1" fill-rule="nonzero"/><path fill="#4dd482" d="M 475.390625 273.789062 C 482.003906 280.277344 488.402344 286.96875 494.585938 293.863281 C 510.285156 311.359375 526.179688 326.648438 546.617188 338.542969 C 543.9375 354.339844 537.125 366.964844 527.191406 379.550781 L 520.71875 381.710938 C 515.367188 378.613281 515.367188 378.613281 509.523438 374.292969 L 503.628906 369.980469 L 499.132812 366.601562 C 504.792969 372.589844 509.957031 377.414062 516.941406 381.84375 L 522.875 386.027344 C 524.765625 390.882812 524.765625 390.882812 525.035156 394.660156 C 502.609375 387.90625 484.4375 372.882812 466.757812 357.96875 L 461.320312 353.414062 C 452.828125 346.117188 446.082031 339.964844 440.859375 329.90625 L 439.78125 323.027344 L 438.699219 316.957031 L 432.226562 312.640625 C 430.742188 305.894531 430.742188 305.894531 430.066406 299.691406 L 433.691406 297.085938 L 438.429688 293.617188 L 443.136719 290.203125 C 447.828125 286.667969 447.828125 286.667969 451.648438 280.265625 L 458.664062 281.613281 C 466.429688 283.003906 466.429688 283.003906 472.019531 280.402344 L 475.390625 278.105469 Z M 475.390625 273.789062 " fill-opacity="1" fill-rule="nonzero"/><path fill="#33353c" d="M 1199.121094 278.511719 C 1207.351562 284.0625 1213.378906 290.710938 1217.871094 299.691406 C 1218.136719 305.679688 1218.277344 311.609375 1218.308594 317.597656 L 1218.34375 323.003906 C 1218.363281 326.785156 1218.378906 330.566406 1218.386719 334.347656 C 1218.410156 340.109375 1218.472656 345.867188 1218.542969 351.625 C 1218.558594 355.304688 1218.570312 358.980469 1218.578125 362.65625 L 1218.660156 367.847656 C 1218.625 376.011719 1218.007812 381.371094 1214.910156 389.070312 C 1210.851562 395.527344 1206.9375 399.070312 1200.601562 403.292969 C 1189.925781 408.40625 1180.421875 408.496094 1168.734375 408.285156 C 1160.667969 407.503906 1154.851562 405.847656 1147.910156 401.734375 C 1142.390625 397.285156 1139.152344 392.226562 1135.851562 386.027344 C 1133.265625 378.261719 1133.261719 371.089844 1133.179688 363 L 1133.125 358.070312 C 1133.097656 354.625 1133.074219 351.179688 1133.058594 347.734375 C 1133.03125 344.234375 1132.988281 340.730469 1132.921875 337.230469 C 1132.324219 304.453125 1132.324219 304.453125 1137.75 293.289062 C 1142.511719 286.476562 1145.964844 282.335938 1153.121094 278.105469 C 1168.894531 272.492188 1183.332031 272.851562 1199.121094 278.511719 M 1165.53125 295.507812 L 1159.59375 299.691406 C 1155.765625 308.722656 1154.726562 316.523438 1154.703125 326.273438 L 1154.6875 333.96875 L 1154.738281 341.914062 L 1154.6875 349.886719 L 1154.703125 357.570312 L 1154.71875 364.546875 C 1155.296875 371.117188 1156.753906 375.789062 1159.59375 381.710938 C 1162.296875 385.675781 1162.296875 385.675781 1166.070312 388.183594 C 1172.65625 389.53125 1178.867188 389.226562 1185.496094 388.183594 C 1191.25 385.308594 1191.25 385.308594 1194.128906 379.550781 C 1197 363.929688 1196.382812 348.425781 1195.882812 332.605469 C 1195.839844 329.976562 1195.800781 327.347656 1195.761719 324.640625 L 1195.519531 316.992188 L 1195.339844 310.0625 C 1194.5625 303.761719 1194.5625 303.761719 1190.113281 299.007812 C 1185.570312 295.003906 1185.570312 295.003906 1179.289062 293.351562 C 1172.382812 292.84375 1172.382812 292.84375 1165.53125 295.507812 " fill-opacity="1" fill-rule="nonzero"/><path fill="#34363d" d="M 1104.648438 117.796875 C 1111.429688 120.925781 1116.195312 124.644531 1121.6875 129.714844 C 1126.300781 137.839844 1126.917969 143.5625 1127.21875 152.917969 L 1122.902344 159.394531 C 1115.347656 159.933594 1115.347656 159.933594 1107.792969 159.394531 L 1103.476562 157.234375 C 1102.015625 152.207031 1100.574219 147.171875 1099.160156 142.128906 L 1094.84375 137.8125 C 1087.777344 135.925781 1083.082031 135.355469 1075.957031 137.136719 C 1071.011719 139.554688 1071.011719 139.554688 1068.675781 143.515625 C 1066.105469 150.421875 1066.226562 156.414062 1066.210938 163.777344 L 1066.199219 168.179688 C 1066.195312 171.242188 1066.203125 174.304688 1066.222656 177.367188 C 1066.246094 182.042969 1066.222656 186.714844 1066.195312 191.390625 C 1066.195312 194.371094 1066.199219 197.355469 1066.210938 200.335938 L 1066.226562 208.527344 C 1066.75 215.09375 1067.425781 218.761719 1071.101562 224.144531 C 1076.820312 227.007812 1082.113281 227.015625 1088.425781 226.871094 C 1093.058594 226.523438 1093.058594 226.523438 1097.945312 223.335938 C 1103.058594 214.746094 1103.101562 205.933594 1103.476562 196.085938 C 1099.335938 196.152344 1099.335938 196.152344 1095.113281 196.222656 C 1086.75 196.355469 1086.75 196.355469 1081.894531 193.929688 C 1081.800781 189.613281 1081.804688 185.296875 1081.894531 180.980469 L 1084.050781 178.820312 C 1087.109375 178.644531 1090.171875 178.574219 1093.234375 178.609375 L 1098.820312 178.628906 L 1104.691406 178.6875 L 1110.589844 178.714844 C 1115.414062 178.742188 1120.238281 178.777344 1125.058594 178.820312 C 1129.285156 191.488281 1128.566406 206.085938 1126.148438 219.140625 C 1123.722656 227.273438 1121.003906 232.457031 1115.617188 239.121094 C 1109.941406 243.578125 1105.976562 245.679688 1099.160156 247.890625 C 1085.734375 249.269531 1071.535156 250.035156 1058.960938 244.515625 C 1053.214844 241.058594 1049.894531 237.417969 1046.414062 231.699219 C 1039.921875 217.160156 1040.480469 203.953125 1040.484375 188.144531 C 1040.480469 183.71875 1040.441406 179.296875 1040.398438 174.875 C 1040.375 160.363281 1040.515625 147.292969 1045.199219 133.492188 C 1049.429688 126.441406 1053.089844 123.171875 1060.039062 118.789062 C 1073.671875 113.664062 1090.769531 113.828125 1104.648438 117.796875 " fill-opacity="1" fill-rule="nonzero"/><path fill="#303239" d="M 1220.027344 116.226562 C 1226.699219 118.101562 1231.835938 120.609375 1237.296875 124.859375 C 1241.84375 129.523438 1245.039062 133.105469 1247.1875 139.257812 C 1248.480469 146.5 1248.527344 153.710938 1248.601562 161.046875 L 1248.65625 165.96875 C 1248.683594 169.402344 1248.707031 172.832031 1248.722656 176.265625 C 1248.75 179.75 1248.792969 183.238281 1248.859375 186.726562 C 1249.453125 219.363281 1249.453125 219.363281 1244.140625 230.527344 C 1238.960938 237.785156 1234.347656 241.558594 1226.503906 245.730469 C 1214.683594 249.667969 1202.128906 248.890625 1189.8125 247.890625 C 1183.191406 245.851562 1180.261719 243.726562 1174.703125 239.253906 C 1169.285156 233.40625 1166.429688 229.542969 1163.910156 221.988281 C 1163.652344 216.109375 1163.503906 210.226562 1163.472656 204.339844 L 1163.4375 199.09375 C 1163.414062 195.421875 1163.402344 191.753906 1163.394531 188.089844 C 1163.371094 182.507812 1163.304688 176.921875 1163.238281 171.335938 C 1163.222656 167.769531 1163.210938 164.199219 1163.203125 160.632812 L 1163.121094 155.605469 C 1163.15625 147.472656 1163.8125 142.371094 1166.992188 134.71875 C 1171.625 127.15625 1176.191406 123.59375 1183.335938 118.386719 C 1195.167969 114.441406 1207.699219 115.246094 1220.027344 116.226562 M 1195.746094 135.652344 L 1189.8125 139.96875 C 1184.097656 153.914062 1184.777344 168.261719 1184.820312 183.136719 L 1184.714844 190.65625 C 1184.636719 205.839844 1184.636719 205.839844 1188.503906 220.371094 L 1191.96875 226.304688 C 1198.257812 229.449219 1204.019531 229.15625 1210.972656 229.078125 C 1216.148438 228.777344 1216.148438 228.777344 1221.109375 224.6875 C 1224.410156 219.734375 1225.429688 216.972656 1226.503906 211.195312 C 1227.050781 201.175781 1227.003906 191.148438 1227.042969 181.113281 L 1227.179688 172.769531 L 1227.210938 164.730469 L 1227.273438 157.394531 C 1226.410156 149.949219 1224.386719 146 1220.027344 139.96875 C 1215.957031 135.210938 1215.957031 135.210938 1209.777344 133.898438 C 1202.660156 133.078125 1202.660156 133.078125 1195.746094 135.652344 " fill-opacity="1" fill-rule="nonzero"/><path fill="#f9880f" d="M 171.0625 306.164062 L 175.109375 311.292969 C 179.476562 316.886719 179.476562 316.886719 184.011719 321.273438 L 184.011719 310.480469 C 189.625 315.871094 194.675781 321.523438 199.660156 327.480469 C 210.914062 340.304688 221.875 348.554688 237.972656 354.460938 C 241.558594 355.660156 245.152344 356.839844 248.765625 357.96875 L 244.445312 360.125 L 244.445312 364.441406 L 240.128906 364.441406 L 237.972656 396.816406 L 248.765625 401.136719 L 246.605469 409.769531 C 221.945312 408.675781 198.675781 400.910156 177.539062 388.183594 C 161.910156 377.386719 148.125 364.40625 136.527344 349.332031 L 136.527344 345.015625 L 140.84375 345.015625 C 139.546875 335.640625 138.109375 326.289062 136.527344 316.957031 C 142.84375 314.085938 148.089844 312.53125 155.011719 311.5625 C 161.511719 310.617188 165.519531 309.492188 171.0625 306.164062 " fill-opacity="1" fill-rule="nonzero"/><path fill="#33353b" d="M 967.5 114.066406 C 971.96875 116.660156 971.96875 116.660156 976.132812 120.542969 C 978.496094 125.511719 978.496094 125.511719 980.316406 131.410156 L 982.433594 138.113281 L 984.605469 145.347656 L 986.90625 152.792969 C 988.503906 157.988281 990.085938 163.1875 991.65625 168.390625 C 994.066406 176.355469 996.53125 184.304688 999.003906 192.25 C 1000.546875 197.300781 1002.089844 202.351562 1003.625 207.402344 L 1005.867188 214.613281 L 1007.878906 221.355469 L 1009.675781 227.265625 C 1010.800781 233.527344 1010.527344 237.542969 1008.507812 243.570312 L 1002.035156 247.890625 C 996.234375 248.160156 996.234375 248.160156 991.242188 247.890625 C 987.199219 238.707031 983.605469 229.351562 980.449219 219.828125 L 939.441406 217.671875 L 936.472656 230.351562 C 935.445312 234.796875 934.273438 239.203125 932.964844 243.570312 L 928.648438 247.890625 C 922.308594 247.484375 922.308594 247.484375 915.699219 245.730469 C 912.050781 242.386719 912.050781 242.386719 909.222656 239.253906 C 918.410156 207.382812 927.601562 175.511719 937.148438 143.746094 L 938.988281 137.53125 L 940.714844 131.839844 L 942.1875 126.933594 C 943.757812 122.703125 943.757812 122.703125 948.074219 116.226562 C 955.175781 113.859375 960.054688 113.460938 967.5 114.066406 M 958.867188 146.445312 C 956.339844 154.625 953.824219 162.808594 951.3125 170.996094 L 949.128906 178.058594 L 947.0625 184.804688 L 945.144531 191.039062 C 943.566406 195.90625 943.566406 195.90625 943.757812 200.402344 C 954.65625 202.640625 965.070312 202.785156 976.132812 202.5625 C 974.6875 190.4375 971.984375 178.976562 968.714844 167.21875 L 967.292969 161.867188 C 966.0625 157.40625 964.636719 152.996094 963.183594 148.601562 Z M 958.867188 146.445312 " fill-opacity="1" fill-rule="nonzero"/><path fill="#32343b" d="M 1417.65625 272.441406 L 1425.074219 273.789062 C 1433.527344 281.664062 1436.285156 290.921875 1439.621094 301.65625 L 1441.632812 308.390625 L 1443.773438 315.382812 C 1445.257812 320.246094 1446.730469 325.117188 1448.1875 329.988281 C 1450.429688 337.445312 1452.707031 344.886719 1454.996094 352.328125 C 1456.433594 357.0625 1457.871094 361.796875 1459.300781 366.535156 L 1461.367188 373.273438 L 1463.246094 379.582031 C 1463.796875 381.402344 1464.347656 383.226562 1464.910156 385.101562 C 1466.164062 390.714844 1466.636719 395.410156 1466.082031 401.136719 C 1461.226562 405.183594 1461.226562 405.183594 1455.289062 407.609375 L 1450.703125 407.746094 C 1446.65625 405.453125 1446.65625 405.453125 1443.015625 399.785156 C 1440.183594 392.5 1440.183594 392.5 1438.023438 377.394531 L 1394.855469 377.394531 L 1391.886719 390.074219 C 1390.859375 394.515625 1389.691406 398.921875 1388.382812 403.292969 L 1384.0625 407.609375 C 1377.589844 407.070312 1377.589844 407.070312 1371.113281 405.453125 L 1366.796875 401.136719 C 1367.558594 387.136719 1371.378906 374.214844 1375.394531 360.84375 L 1377.34375 354.316406 C 1378.699219 349.789062 1380.0625 345.261719 1381.433594 340.738281 C 1383.523438 333.828125 1385.554688 326.902344 1387.585938 319.980469 L 1391.585938 306.75 L 1393.398438 300.5 C 1396.1875 291.476562 1398.578125 285.324219 1404.5625 277.882812 C 1409.964844 273.789062 1409.964844 273.789062 1417.652344 272.441406 M 1414.28125 306.164062 C 1412.101562 313.488281 1409.949219 320.820312 1407.804688 328.15625 L 1405.933594 334.433594 L 1404.164062 340.523438 L 1402.519531 346.105469 C 1400.945312 352.328125 1400.945312 352.328125 1401.332031 362.285156 L 1431.546875 362.285156 C 1430.265625 349.601562 1427.777344 337.925781 1424.128906 325.726562 L 1422.707031 320.714844 C 1421.476562 316.539062 1420.054688 312.425781 1418.597656 308.324219 Z M 1414.28125 306.164062 " fill-opacity="1" fill-rule="nonzero"/><path fill="#45a3cb" d="M 658.851562 137.8125 L 663.171875 142.128906 L 645.902344 176.660156 L 642.414062 175.398438 C 619.8125 167.496094 598.835938 163.378906 575.007812 167.203125 C 534.296875 175.136719 502.757812 196.386719 471.480469 222.796875 L 466.757812 226.304688 C 461.769531 225.765625 461.769531 225.765625 458.125 224.144531 C 466.113281 201.050781 487.957031 181.984375 505.609375 165.871094 C 525.867188 148.949219 552.367188 135.695312 578.242188 130.121094 C 605.816406 126.519531 632.703125 127.84375 658.851562 137.8125 " fill-opacity="1" fill-rule="nonzero"/><path fill="#2f3138" d="M 1351.824219 117.171875 C 1359.882812 120.101562 1359.882812 120.101562 1362.480469 122.703125 C 1362.886719 129.042969 1362.886719 129.042969 1362.480469 135.652344 L 1358.164062 139.96875 C 1354.175781 139.445312 1354.175781 139.445312 1349.398438 138.082031 C 1336.273438 134.800781 1323.773438 134.128906 1310.679688 137.8125 L 1309.871094 145.90625 C 1309.71875 147.40625 1309.566406 148.910156 1309.417969 150.457031 L 1310.679688 155.078125 C 1319.328125 161.972656 1328.851562 166.292969 1338.875 170.863281 C 1347.578125 175.023438 1355.191406 178.816406 1360.996094 186.78125 C 1365.875 196.355469 1367.601562 204.324219 1367.378906 215.183594 C 1366.316406 223.671875 1363.3125 230.292969 1358.164062 237.097656 C 1351.433594 243.363281 1344.585938 246.984375 1335.660156 249.171875 C 1323.246094 250.871094 1311.703125 250 1299.886719 245.730469 C 1293.230469 241.855469 1288.046875 238.203125 1282.621094 232.78125 C 1281.949219 226.304688 1281.949219 226.304688 1282.621094 219.828125 L 1289.097656 215.511719 C 1293.007812 215.78125 1293.007812 215.78125 1297.730469 217.671875 L 1303.261719 222.125 C 1311.023438 226.5 1314.285156 226.933594 1322.953125 226.980469 C 1329.699219 226.800781 1334.457031 226.292969 1340.898438 224.144531 C 1341.25 221.140625 1341.5 218.125 1341.707031 215.109375 C 1341.855469 213.429688 1342.007812 211.753906 1342.160156 210.023438 L 1340.898438 204.722656 C 1330.425781 194.230469 1318.375 189.066406 1304.9375 183.007812 C 1296.457031 178.078125 1292.621094 173.785156 1286.9375 165.871094 C 1284.257812 157.828125 1283.921875 150.488281 1284.78125 142.128906 C 1287.714844 133.8125 1290.941406 129.488281 1297.191406 123.242188 C 1313.664062 111.835938 1333.101562 111.097656 1351.824219 117.171875 M 1777.804688 275.089844 C 1784.328125 277.449219 1789.214844 279.644531 1794.152344 284.582031 C 1793.34375 291.328125 1793.34375 291.328125 1791.996094 297.53125 C 1787.273438 298.882812 1787.273438 298.882812 1781.203125 299.691406 L 1776.484375 297.667969 C 1767.328125 294.207031 1758.492188 294.058594 1748.828125 295.375 C 1742.78125 298.53125 1742.78125 298.53125 1740.195312 304.007812 L 1739.65625 309.269531 C 1741.875 314.78125 1741.875 314.78125 1745.617188 317.503906 C 1753.632812 322.691406 1762.027344 326.710938 1770.679688 330.71875 C 1781.070312 335.757812 1787.671875 341.996094 1794.152344 351.492188 C 1797.046875 357.28125 1796.675781 361.890625 1796.71875 368.355469 L 1796.808594 375.140625 C 1796.292969 381.960938 1795.140625 386.449219 1791.996094 392.5 C 1788.496094 396.3125 1788.496094 396.3125 1784.578125 399.515625 L 1780.671875 402.789062 C 1776.886719 405.453125 1776.886719 405.453125 1770.410156 407.609375 C 1755.648438 408.691406 1740.582031 409.671875 1726.703125 403.832031 C 1721.730469 401.15625 1718.226562 398.625 1714.023438 394.796875 C 1712.136719 390.34375 1712.136719 390.34375 1712.542969 384.675781 C 1714.292969 379.550781 1714.292969 379.550781 1718.609375 375.234375 C 1723.46875 375.503906 1723.46875 375.503906 1729.402344 377.394531 L 1735.203125 381.84375 C 1742.382812 386.042969 1745.371094 386.808594 1753.414062 387.105469 C 1760.4375 386.777344 1763.558594 386.246094 1769.738281 382.65625 C 1773.082031 377.292969 1773.082031 377.292969 1773.109375 369.972656 C 1771.175781 362.519531 1771.175781 362.519531 1767.222656 359.367188 C 1762.644531 356.445312 1757.992188 353.945312 1753.144531 351.492188 C 1727.261719 338.28125 1727.261719 338.28125 1718.609375 325.589844 C 1715.078125 318.527344 1715.761719 311.28125 1715.863281 303.492188 C 1716.453125 297.53125 1716.453125 297.53125 1719.824219 290.113281 C 1726.953125 282.617188 1734.253906 277.800781 1744.277344 274.675781 C 1755.230469 272.542969 1766.960938 272.398438 1777.804688 275.089844 M 1676.246094 275.476562 L 1684.078125 275.949219 C 1685.425781 282.152344 1685.425781 282.152344 1686.234375 288.898438 L 1681.917969 293.214844 C 1676.476562 293.902344 1676.476562 293.902344 1669.695312 294.109375 L 1662.359375 294.363281 L 1654.667969 294.5625 L 1646.929688 294.816406 C 1640.605469 295.023438 1634.28125 295.199219 1627.960938 295.375 L 1625.800781 332.066406 L 1640.507812 331.664062 C 1648.777344 331.433594 1648.777344 331.433594 1656.019531 332.066406 C 1660.226562 335.328125 1660.226562 335.328125 1662.492188 338.542969 L 1658.175781 349.332031 L 1625.800781 349.332031 L 1627.960938 386.027344 L 1639.609375 386.347656 L 1654.667969 386.835938 C 1657.207031 386.902344 1659.742188 386.96875 1662.359375 387.039062 L 1669.695312 387.292969 L 1676.476562 387.496094 L 1681.917969 388.183594 L 1686.234375 392.5 C 1686.910156 397.898438 1686.910156 397.898438 1686.234375 403.292969 C 1679.761719 407.609375 1679.761719 407.609375 1672.554688 408.167969 C 1669.601562 408.199219 1666.652344 408.203125 1663.699219 408.183594 L 1658.964844 408.195312 C 1655.671875 408.199219 1652.375 408.191406 1649.078125 408.171875 C 1644.023438 408.148438 1638.972656 408.171875 1633.917969 408.199219 C 1630.714844 408.199219 1627.511719 408.195312 1624.308594 408.183594 L 1619.714844 408.210938 C 1615.984375 408.171875 1612.253906 407.910156 1608.535156 407.609375 L 1604.21875 403.292969 C 1603.585938 398.324219 1603.585938 398.324219 1603.460938 392.042969 L 1603.289062 384.925781 L 1603.171875 377.207031 L 1603.015625 369.304688 C 1602.910156 363.777344 1602.816406 358.25 1602.734375 352.722656 C 1602.597656 344.257812 1602.417969 335.792969 1602.234375 327.328125 L 1601.957031 311.242188 L 1601.789062 303.550781 L 1601.699219 296.390625 L 1601.59375 290.097656 C 1602.085938 284.269531 1603.210938 280.835938 1606.375 275.949219 C 1623.773438 267.25 1657.148438 274.367188 1676.242188 275.476562 " fill-opacity="1" fill-rule="nonzero"/><path fill="#31333a" d="M 1266.398438 274.554688 L 1271.828125 278.105469 C 1275.023438 284.527344 1276.679688 291.289062 1278.472656 298.207031 L 1280.152344 304.253906 C 1281.917969 310.636719 1283.617188 317.03125 1285.320312 323.433594 C 1287.066406 329.828125 1288.820312 336.21875 1290.578125 342.609375 C 1291.667969 346.589844 1292.746094 350.574219 1293.816406 354.558594 L 1295.277344 360.015625 L 1296.558594 364.828125 C 1297.652344 368.917969 1297.652344 368.917969 1299.886719 373.074219 L 1302.128906 364.890625 C 1304.882812 354.859375 1307.675781 344.835938 1310.480469 334.820312 C 1311.6875 330.484375 1312.882812 326.148438 1314.070312 321.804688 C 1315.78125 315.5625 1317.527344 309.328125 1319.277344 303.097656 L 1320.859375 297.222656 C 1323.210938 288.992188 1324.933594 283.4375 1330.511719 276.8125 L 1334.421875 273.789062 C 1347.101562 277.835938 1347.101562 277.835938 1349.53125 280.265625 C 1348.515625 294.878906 1344.578125 308.246094 1340.308594 322.203125 L 1338.183594 329.210938 C 1336.707031 334.070312 1335.222656 338.929688 1333.734375 343.785156 C 1331.449219 351.234375 1329.210938 358.699219 1326.96875 366.164062 C 1325.527344 370.890625 1324.082031 375.617188 1322.636719 380.34375 L 1320.609375 387.121094 L 1318.667969 393.371094 L 1316.988281 398.875 L 1314.996094 403.292969 C 1308.523438 407.609375 1308.523438 407.609375 1304.339844 408.183594 L 1299.886719 408.148438 L 1295.433594 408.183594 C 1291.253906 407.609375 1291.253906 407.609375 1284.78125 403.292969 C 1282.691406 398.683594 1282.691406 398.683594 1280.871094 392.90625 L 1278.777344 386.355469 L 1276.59375 379.246094 L 1274.296875 371.957031 C 1272.699219 366.855469 1271.113281 361.753906 1269.535156 356.648438 C 1267.117188 348.847656 1264.675781 341.058594 1262.207031 333.273438 L 1257.574219 318.40625 L 1255.347656 311.355469 L 1253.3125 304.722656 L 1251.511719 298.921875 C 1250.078125 292.453125 1249.710938 286.871094 1250.246094 280.265625 C 1255.867188 275.125 1258.785156 273.464844 1266.398438 274.554688 " fill-opacity="1" fill-rule="nonzero"/><path fill="#fcd707" d="M 219.355469 121.351562 L 222.863281 122.703125 L 212.070312 127.019531 C 210.238281 142.792969 216.703125 155.90625 222.863281 170.1875 C 224.929688 175.054688 224.929688 175.054688 227.179688 178.820312 L 231.496094 180.980469 L 229.339844 187.453125 C 225.011719 190.238281 225.011719 190.238281 219.492188 193.121094 C 207.363281 200.054688 198.941406 208.792969 190.488281 219.828125 L 188.328125 224.144531 L 184.011719 224.144531 L 184.011719 219.828125 L 177.539062 219.828125 L 177.539062 215.511719 L 171.0625 213.355469 C 165.261719 208.09375 165.261719 208.09375 160.269531 202.5625 L 160.269531 198.246094 C 153.832031 194.667969 148.210938 192.472656 140.84375 191.769531 C 133.847656 193.621094 133.847656 193.621094 127.894531 196.085938 C 134.980469 176.394531 149.21875 160.25 164.90625 146.746094 C 202.320312 118.664062 202.320312 118.664062 219.355469 121.351562 " fill-opacity="1" fill-rule="nonzero"/><path fill="#2f3138" d="M 1500.210938 273.503906 L 1507.789062 273.492188 L 1515.726562 273.519531 L 1523.457031 273.492188 C 1538.984375 273.511719 1554.25 274.21875 1569.683594 275.949219 C 1570.527344 280.242188 1571.234375 284.5625 1571.84375 288.898438 L 1569.683594 293.214844 C 1561.050781 295.375 1561.050781 295.375 1539.464844 295.375 L 1537.308594 403.292969 L 1528.675781 407.609375 C 1521.796875 406.9375 1521.796875 406.9375 1515.726562 405.453125 L 1513.566406 403.292969 C 1513.316406 399.914062 1513.167969 396.53125 1513.125 393.140625 L 1512.996094 386.59375 L 1512.882812 379.476562 L 1512.75 372.226562 C 1512.609375 364.550781 1512.476562 356.875 1512.351562 349.199219 L 1512.070312 333.632812 C 1511.835938 320.878906 1511.617188 308.125 1511.40625 295.375 L 1506.445312 295.449219 C 1504.296875 295.46875 1502.152344 295.488281 1499.941406 295.507812 L 1493.492188 295.585938 C 1487.664062 295.375 1487.664062 295.375 1481.191406 293.214844 C 1480.347656 288.921875 1479.640625 284.597656 1479.03125 280.265625 L 1481.191406 275.949219 C 1488.0625 273.65625 1492.992188 273.507812 1500.210938 273.503906 " fill-opacity="1" fill-rule="nonzero"/><path fill="#23d1a3" d="M 544.460938 340.699219 C 552.359375 342.425781 559.699219 345.277344 567.257812 348.121094 C 580.511719 352.921875 593.125 355.898438 607.050781 357.96875 L 604.894531 403.292969 L 600.578125 405.453125 L 602.734375 414.085938 C 577.003906 413.066406 552.453125 410.410156 528.804688 399.320312 C 525.035156 396.816406 525.035156 396.816406 521.796875 390.613281 L 518.558594 383.867188 C 513.746094 380.167969 508.789062 377.035156 503.578125 373.929688 C 499.132812 370.917969 499.132812 370.917969 494.816406 364.441406 C 503.648438 367.386719 509.992188 371.792969 517.160156 377.550781 L 520.71875 379.550781 L 527.191406 377.394531 C 531.261719 371.78125 531.261719 371.78125 535.015625 364.980469 L 539.015625 358.136719 C 541.992188 352.117188 543.554688 347.304688 544.460938 340.699219 " fill-opacity="1" fill-rule="nonzero"/><path fill="#adda3c" d="M 348.046875 137.8125 C 373.164062 144.960938 394.5625 167.171875 412.800781 185.296875 C 415.03125 188.117188 417.226562 190.972656 419.273438 193.929688 L 412.800781 198.246094 C 406.070312 196.960938 399.726562 194.929688 393.179688 192.917969 C 387.132812 191.355469 387.132812 191.355469 382.210938 193.007812 C 376.878906 197.167969 374.347656 201.628906 371.117188 207.554688 L 367.632812 213.734375 C 364.902344 219.648438 364.902344 219.648438 365.6875 225.613281 C 368.207031 232.671875 372.765625 236.476562 378.265625 241.414062 L 373.949219 245.730469 L 371.328125 242.558594 C 357.375 226.109375 341.90625 212.773438 324.308594 200.402344 C 325.214844 193.113281 326.171875 185.832031 327.140625 178.550781 L 327.910156 172.328125 C 329.449219 160.964844 331.328125 151.992188 337.257812 142.128906 L 348.046875 142.128906 Z M 348.046875 137.8125 " fill-opacity="1" fill-rule="nonzero"/><path fill="#2f3138" d="M 814.253906 116.226562 C 826.636719 115.636719 826.636719 115.636719 831.523438 116.226562 L 835.839844 120.542969 C 836.355469 125.160156 836.355469 125.160156 836.328125 130.941406 L 836.328125 137.488281 L 836.261719 144.574219 L 836.242188 151.8125 C 836.21875 159.464844 836.164062 167.121094 836.109375 174.773438 C 836.085938 179.953125 836.066406 185.132812 836.050781 190.3125 C 836.007812 203.027344 835.921875 215.746094 835.839844 228.464844 L 883.324219 228.464844 L 887.640625 239.253906 C 885.75 244.246094 885.75 244.246094 883.324219 247.890625 C 874.222656 247.996094 865.117188 248.074219 856.011719 248.125 C 852.917969 248.148438 849.824219 248.175781 846.726562 248.210938 C 842.273438 248.265625 837.820312 248.289062 833.367188 248.308594 L 825.253906 248.378906 C 818.574219 247.890625 818.574219 247.890625 812.097656 243.570312 C 811.304688 238.3125 811.304688 238.3125 811.328125 231.625 L 811.308594 224.050781 L 811.390625 215.839844 L 811.402344 207.457031 C 811.414062 201.597656 811.441406 195.738281 811.488281 189.878906 C 811.554688 182.355469 811.574219 174.832031 811.582031 167.304688 C 811.597656 160.144531 811.625 152.988281 811.660156 145.828125 L 811.6875 137.605469 L 811.75 130.054688 L 811.792969 123.367188 L 812.097656 118.386719 Z M 814.253906 116.226562 " fill-opacity="1" fill-rule="nonzero"/><path fill="#2acdb7" d="M 654.535156 340.699219 L 658.851562 342.859375 C 657.371094 346.90625 657.371094 346.90625 654.535156 351.492188 C 648.871094 354.191406 648.871094 354.191406 643.746094 355.808594 C 648.640625 368.65625 648.640625 368.65625 656.5625 379.6875 C 661.945312 382.132812 665.953125 382.199219 671.804688 381.710938 L 671.804688 377.394531 L 680.4375 377.394531 L 682.59375 383.867188 C 672.378906 395.363281 661.988281 400.683594 647.539062 405.746094 C 631.539062 410.734375 617.316406 413.15625 600.578125 411.925781 L 600.578125 403.292969 L 604.894531 403.292969 L 604.859375 399.398438 C 604.816406 393.59375 604.785156 387.785156 604.757812 381.980469 L 604.703125 375.847656 L 604.683594 369.988281 L 604.648438 364.578125 C 604.894531 360.125 604.894531 360.125 607.050781 355.808594 C 612.171875 354.824219 612.171875 354.824219 618.789062 354.054688 C 630.800781 352.304688 639.824219 348.71875 650.304688 342.699219 Z M 654.535156 340.699219 " fill-opacity="1" fill-rule="nonzero"/><path fill="#2f3138" d="M 827.613281 274.328125 L 833.679688 275.949219 C 836.453125 281.496094 836.160156 285.535156 836.222656 291.746094 L 836.304688 299.015625 L 836.40625 314.964844 C 836.4375 320.601562 836.457031 326.238281 836.476562 331.875 C 836.496094 337.664062 836.539062 343.453125 836.609375 349.242188 C 836.699219 357.566406 836.738281 365.886719 836.757812 374.214844 L 836.875 382.082031 L 836.855469 389.375 L 836.894531 395.796875 L 835.839844 401.136719 C 831.890625 405.140625 831.890625 405.140625 827.207031 407.609375 C 820.328125 407.070312 820.328125 407.070312 814.253906 405.453125 L 812.097656 403.292969 C 811.910156 399.382812 811.828125 395.472656 811.851562 391.554688 L 811.851562 383.964844 L 811.886719 375.695312 L 811.898438 367.289062 C 811.90625 359.894531 811.921875 352.503906 811.949219 345.113281 C 811.96875 337.574219 811.984375 330.039062 811.992188 322.5 C 812.015625 307.703125 812.050781 292.90625 812.097656 278.105469 C 818.207031 274.660156 820.347656 273.757812 827.613281 274.328125 " fill-opacity="1" fill-rule="nonzero"/><path fill="#fcd706" d="M 218.953125 121.488281 L 222.863281 122.703125 L 212.070312 127.019531 C 210.238281 142.792969 216.703125 155.90625 222.863281 170.1875 C 224.929688 175.054688 224.929688 175.054688 227.179688 178.820312 L 231.496094 180.980469 L 229.339844 187.453125 C 224.40625 190.449219 224.40625 190.449219 218.414062 193.253906 C 216.425781 194.195312 214.445312 195.140625 212.398438 196.113281 L 207.753906 198.246094 L 207.316406 193.785156 C 205.042969 185.417969 200.445312 179.332031 195.34375 172.480469 L 192.527344 168.589844 C 186.40625 160.203125 179.9375 152.199219 173.222656 144.285156 C 182.652344 132.90625 194.21875 128.148438 207.753906 122.703125 C 214.230469 120.542969 214.230469 120.542969 218.953125 121.488281 " fill-opacity="1" fill-rule="nonzero"/><path fill="#edde42" d="M 240.128906 118.386719 L 241.074219 124.1875 C 242.589844 133.1875 242.589844 133.1875 244.445312 142.128906 L 246.605469 144.285156 C 247.285156 149.578125 247.824219 154.882812 248.222656 160.203125 L 248.671875 164.6875 C 249 169.023438 249 169.023438 248.765625 176.660156 C 245.921875 180.835938 245.921875 180.835938 242.289062 183.136719 C 236.488281 184.621094 236.488281 184.621094 231.496094 185.296875 L 231.496094 180.980469 L 225.023438 178.820312 C 221.632812 172.777344 221.632812 172.777344 218.277344 165.195312 L 214.886719 157.664062 C 210.589844 147.125 208.683594 138.5 209.914062 127.019531 C 214.679688 121.988281 218.628906 119.226562 225.023438 116.632812 C 230.410156 116.128906 234.90625 117.078125 240.128906 118.386719 " fill-opacity="1" fill-rule="nonzero"/><path fill="#f74026" d="M 402.007812 291.058594 L 410.640625 291.058594 L 414.957031 297.53125 C 414.765625 303.554688 414.765625 303.554688 412.800781 310.480469 C 409.644531 315.382812 406.582031 319.742188 402.953125 324.242188 L 400.171875 327.808594 C 397.925781 330.679688 395.660156 333.539062 393.375 336.382812 L 386.898438 329.90625 L 383.558594 333.472656 C 370.570312 346.949219 356.75 357.894531 341.574219 368.757812 C 339.328125 365.945312 337.171875 363.070312 335.097656 360.125 L 335.097656 355.808594 C 339.210938 352.535156 339.210938 352.535156 344.8125 348.792969 C 354.714844 342.046875 364.429688 335.03125 373.949219 327.75 L 371.789062 321.273438 C 379.578125 310.222656 389.589844 301.917969 399.847656 293.214844 Z M 402.007812 291.058594 " fill-opacity="1" fill-rule="nonzero"/><path fill="#fac703" d="M 147.859375 191.097656 C 153.796875 193.929688 153.796875 193.929688 160.269531 198.246094 L 160.269531 202.5625 L 164.046875 204.179688 C 169.617188 207.273438 173.351562 210.730469 177.539062 215.511719 L 177.539062 219.828125 L 184.011719 219.828125 L 186.171875 228.464844 L 177.539062 232.78125 L 175.378906 230.621094 L 173.222656 234.9375 C 169.039062 234.265625 169.039062 234.265625 164.585938 232.78125 L 162.429688 226.304688 L 158.113281 224.144531 L 158.113281 219.828125 C 154.449219 217.449219 154.449219 217.449219 149.480469 215.511719 L 142.871094 215.648438 L 136.527344 215.511719 C 132.480469 212.273438 132.480469 212.273438 130.054688 209.039062 L 123.578125 211.195312 L 121.421875 204.722656 C 122.5 200.402344 122.5 200.402344 125.738281 196.085938 C 133.972656 191.335938 138.433594 189.101562 147.859375 191.097656 " fill-opacity="1" fill-rule="nonzero"/><path fill="#69d46d" d="M 475.390625 273.789062 L 479.710938 275.949219 L 477.28125 279.726562 L 475.390625 284.582031 C 477.082031 289.40625 477.082031 289.40625 479.710938 293.214844 L 471.074219 297.53125 L 468.917969 291.058594 L 464.601562 291.058594 L 466.757812 301.847656 C 457.484375 310.28125 457.484375 310.28125 453.808594 312.640625 L 445.175781 312.640625 L 445.175781 308.324219 L 438.699219 308.324219 L 436.542969 312.640625 L 432.226562 312.640625 L 430.066406 299.691406 L 433.691406 297.085938 L 438.429688 293.617188 L 443.136719 290.203125 C 447.828125 286.667969 447.828125 286.667969 451.648438 280.265625 L 458.664062 281.613281 C 466.429688 283.003906 466.429688 283.003906 472.019531 280.402344 L 475.390625 278.105469 Z M 475.390625 273.789062 " fill-opacity="1" fill-rule="nonzero"/><path fill="#fad84d" d="M 171.0625 142.128906 C 184.890625 149.039062 195.359375 168.382812 203.707031 180.980469 C 207.503906 186.78125 207.503906 186.78125 209.914062 191.769531 L 207.753906 198.246094 L 201.28125 200.402344 C 199.535156 198.191406 197.792969 195.980469 195.992188 193.703125 L 189.003906 184.890625 L 185.535156 180.484375 C 178.96875 172.226562 172.433594 164.3125 164.585938 157.234375 L 160.269531 157.234375 C 156.402344 160.105469 156.402344 160.105469 152.445312 163.710938 L 148.316406 167.355469 L 145.164062 170.1875 C 148.507812 161.804688 153.804688 157.171875 160.539062 151.300781 L 166.492188 146.074219 Z M 171.0625 142.128906 " fill-opacity="1" fill-rule="nonzero"/><path fill="#f99f0c" d="M 171.0625 297.53125 C 172.410156 301.984375 172.410156 301.984375 173.222656 306.164062 C 164.625 312.15625 157.664062 313.671875 147.320312 314.800781 C 144.429688 315.464844 141.542969 316.160156 138.6875 316.957031 C 139.71875 323.296875 140.769531 329.578125 142.195312 335.84375 L 143.003906 340.699219 L 140.84375 345.015625 C 136.910156 344.597656 136.910156 344.597656 132.210938 342.859375 C 128.929688 338.152344 128.929688 338.152344 126.144531 332.335938 L 123.265625 326.550781 L 121.421875 321.273438 L 123.578125 314.800781 L 127.894531 321.273438 L 132.210938 321.273438 L 130.054688 308.324219 C 135.046875 303.875 135.046875 303.875 140.84375 299.691406 L 147.320312 301.847656 L 147.320312 297.53125 C 150.464844 297.113281 153.613281 296.710938 156.761719 296.320312 L 162.074219 295.636719 C 166.746094 295.375 166.746094 295.375 171.0625 297.53125 " fill-opacity="1" fill-rule="nonzero"/><path fill="#3aabc5" d="M 650.21875 135.652344 L 663.171875 139.96875 C 659.25 151.332031 654.984375 160.261719 648.0625 170.1875 L 645.902344 176.660156 C 639.5625 175.042969 639.5625 175.042969 632.953125 172.34375 C 630.863281 168.769531 630.863281 168.769531 630.792969 163.710938 C 633.695312 158.660156 636.886719 153.804688 640.375 149.140625 L 643.210938 145.207031 C 645.527344 142.007812 647.863281 138.820312 650.21875 135.652344 " fill-opacity="1" fill-rule="nonzero"/><path fill="#16d0ad" d="M 587.628906 360.125 L 604.894531 360.125 L 604.894531 366.601562 L 600.578125 366.601562 L 600.578125 379.550781 L 598.957031 375.503906 C 596.574219 370.605469 596.574219 370.605469 591.675781 368.21875 L 587.628906 366.601562 Z M 587.628906 360.125 " fill-opacity="1" fill-rule="nonzero"/><path fill="#f99f0a" d="M 179.695312 301.847656 C 182.933594 304.277344 182.933594 304.277344 186.171875 308.324219 C 186.578125 315.203125 186.578125 315.203125 186.171875 321.273438 L 179.695312 321.273438 C 175.917969 316.148438 175.917969 316.148438 173.222656 310.480469 L 175.378906 306.164062 L 179.695312 306.164062 Z M 155.953125 314.800781 L 164.585938 314.800781 L 164.585938 321.273438 L 149.480469 325.589844 C 153.527344 317.226562 153.527344 317.226562 155.953125 314.800781 " fill-opacity="1" fill-rule="nonzero"/></svg>