<svg xmlns="http://www.w3.org/2000/svg" xmlns:xlink="http://www.w3.org/1999/xlink" width="2540" zoomAndPan="magnify" viewBox="0 0 1904.88 526.499984" height="702" preserveAspectRatio="xMidYMid meet" version="1.0"><path fill="#27bbbd" d="M 298.890625 131.070312 C 304.648438 133.582031 310.207031 136.308594 315.78125 139.207031 L 321.65625 142.121094 C 336.003906 149.515625 348.171875 158.421875 360.375 168.941406 L 365.675781 173.453125 C 392.804688 197.160156 413.5625 224.4375 432.691406 254.707031 C 444.113281 272.757812 456.40625 289.066406 470.789062 304.859375 L 475.0625 309.664062 C 493.710938 329.570312 518.367188 344.949219 543.910156 354.238281 C 563.320312 358.324219 581.015625 358.882812 600.3125 353.710938 C 616.242188 347.917969 629.246094 338.585938 640.652344 326.101562 C 650.230469 313.324219 657.179688 299.441406 659.765625 283.625 C 661.335938 264.902344 660.8125 247.625 653.949219 229.851562 C 649.796875 220.972656 644.65625 212.703125 638.53125 205.042969 C 637.519531 203.742188 636.503906 202.433594 635.453125 201.089844 C 624.320312 188.441406 609.246094 181.640625 593.941406 175.3125 C 586.847656 173.058594 580.113281 171.746094 572.707031 171.066406 L 567.953125 170.542969 C 544.253906 169.226562 519.398438 176.660156 498.261719 186.996094 C 477.550781 197.597656 459.179688 212.117188 441.460938 227.078125 L 436.8125 230.53125 C 431.90625 230 431.90625 230 428.320312 228.40625 C 436.179688 205.683594 457.667969 186.921875 475.035156 171.066406 C 494.964844 154.417969 521.035156 141.375 546.488281 135.890625 C 573.792969 132.320312 599.855469 133.753906 625.789062 143.457031 C 649.4375 153.796875 669.199219 169.628906 685.023438 189.960938 C 701.417969 214.121094 708.324219 239.25 711.3125 268.050781 C 712.285156 291.207031 706.878906 314.59375 696.660156 335.257812 C 683.550781 360.328125 666.515625 378.578125 642.78125 394.058594 C 620.085938 407.949219 594.445312 414.269531 568.015625 415.363281 C 533.90625 415.082031 503.769531 404.800781 474.339844 388.1875 C 441.796875 368.945312 410.558594 341.035156 390.097656 309.109375 L 390.097656 304.859375 L 385.851562 304.859375 L 384.1875 309.5 C 373.085938 335.238281 347.886719 360.574219 325.785156 377.34375 C 301.46875 394.132812 275.394531 407.214844 245.714844 411.050781 C 216.738281 413.011719 190.699219 409.105469 164.230469 396.714844 C 140.097656 383.652344 120 364.640625 105.042969 341.632812 C 91.519531 317.859375 85.820312 291.40625 85.792969 264.261719 C 86.300781 235.800781 95.222656 210.246094 109.820312 185.933594 C 125.859375 162.355469 146.441406 145.304688 171.769531 132.5 C 181.859375 127.847656 192.480469 124.839844 203.246094 122.21875 L 208.039062 120.992188 C 238.988281 116.230469 269.820312 119.914062 298.890625 131.070312 M 190.058594 197.097656 C 178.113281 204.558594 169.730469 212.851562 162.886719 225.1875 C 153.144531 243.789062 149.496094 257.128906 149.71875 278.097656 C 150.710938 295.117188 156.5 308.863281 165.605469 323.152344 C 176.375 338.042969 188.761719 348.113281 205.371094 355.832031 L 209.53125 357.816406 C 223.34375 363.707031 237.488281 364.890625 252.375 363.871094 C 283.6875 359.90625 311.738281 346.171875 337.019531 327.691406 C 348.074219 319.207031 358.335938 310.082031 368.484375 300.550781 C 373.113281 296.367188 373.113281 296.367188 377.359375 294.246094 C 376.09375 285.460938 371.152344 279.089844 366.082031 272.078125 L 363.238281 268.132812 C 339.617188 236.097656 311.257812 210.027344 275.441406 192.300781 C 246.082031 180.300781 217.921875 182.046875 190.058594 197.097656 M 381.605469 296.367188 L 385.851562 300.613281 L 385.851562 296.367188 Z M 381.605469 296.367188 " fill-opacity="1" fill-rule="nonzero"/><path fill="#fbb308" d="M 298.890625 131.070312 C 304.648438 133.582031 310.207031 136.308594 315.78125 139.207031 L 321.65625 142.121094 C 336 149.511719 348.179688 158.414062 360.375 168.941406 L 366.121094 173.902344 C 374.96875 181.703125 382.90625 189.292969 390.097656 198.675781 L 383.730469 202.921875 C 377.109375 201.65625 370.871094 199.660156 364.429688 197.679688 C 358.480469 196.140625 358.480469 196.140625 353.636719 197.769531 C 348.394531 201.863281 345.902344 206.25 342.726562 212.082031 L 339.296875 218.160156 C 336.609375 223.980469 336.609375 223.980469 337.382812 229.851562 C 339.863281 236.796875 344.347656 240.539062 349.757812 245.398438 L 345.511719 249.644531 L 342.933594 246.523438 C 322.671875 222.632812 298.121094 202.605469 268.339844 191.773438 C 250.84375 186.828125 233.292969 184.152344 215.40625 188.296875 C 199.632812 193.425781 184.011719 200.578125 172.667969 212.984375 C 164.152344 225.042969 154.664062 241.261719 152.289062 256.015625 C 151.121094 273.867188 151.40625 290.445312 158.65625 306.988281 C 165.628906 321 173.957031 333.273438 186.257812 343.089844 C 192.410156 347.167969 198.703125 350.554688 205.371094 353.710938 L 209.542969 355.699219 C 223.355469 361.578125 237.488281 362.769531 252.375 361.746094 C 283.6875 357.78125 311.738281 344.050781 337.019531 325.570312 C 348.074219 317.117188 358.132812 307.9375 368.070312 298.214844 L 373.113281 294.246094 L 381.605469 294.246094 L 385.851562 300.613281 C 385.5 308.191406 384.085938 312.765625 380.160156 319.28125 C 354.292969 352.710938 326.0625 383.636719 286.070312 400.042969 C 260.433594 409.667969 234.597656 414.308594 207.265625 410.414062 C 180.558594 405.46875 156.929688 395.070312 136.105469 377.484375 C 113.4375 356.566406 100.050781 335 90.667969 305.957031 C 84.039062 282.183594 83.929688 256.234375 89.78125 232.257812 C 97.210938 204.433594 111.238281 180.992188 131.085938 160.214844 C 149.890625 142.238281 172.347656 130.683594 197.214844 123.6875 L 203.246094 122.21875 L 208.039062 120.992188 C 238.988281 116.230469 269.820312 119.914062 298.890625 131.070312 " fill-opacity="1" fill-rule="nonzero"/><path fill="#85d759" d="M 354.003906 194.429688 C 359.4375 194.660156 359.4375 194.660156 365.550781 196.019531 L 371.644531 197.3125 C 375.089844 198.132812 378.523438 198.988281 381.949219 199.902344 C 386.222656 201.035156 386.222656 201.035156 392.226562 200.796875 C 409.109375 215.121094 420.246094 235.257812 431.914062 253.753906 C 453.621094 288.042969 479.882812 320.3125 515.375 340.96875 C 512.742188 356.511719 506.039062 368.933594 496.265625 381.316406 L 489.898438 383.441406 C 484.632812 380.394531 484.632812 380.394531 478.886719 376.144531 L 473.085938 371.902344 L 468.664062 368.578125 C 474.230469 374.46875 479.3125 379.214844 486.183594 383.574219 L 492.019531 387.691406 C 493.878906 392.46875 493.878906 392.46875 494.144531 396.183594 C 472.085938 389.542969 454.199219 374.761719 436.8125 360.082031 L 431.765625 355.824219 C 416.023438 342.210938 401.375 326.703125 390.097656 309.109375 L 390.097656 304.859375 L 385.851562 304.859375 L 385.851562 296.367188 L 381.898438 295.820312 L 377.359375 294.246094 C 374.882812 290.675781 374.882812 290.675781 372.71875 286.011719 C 367.117188 275.039062 359.714844 266.292969 351.648438 257.035156 C 347.789062 251.972656 346.796875 249.289062 345.511719 243.273438 L 339.9375 237.039062 L 334.894531 230.53125 C 335.554688 222.730469 338.230469 216.839844 342.058594 210.089844 L 344.761719 205.222656 C 349.878906 197.328125 349.878906 197.328125 354.003906 194.429688 " fill-opacity="1" fill-rule="nonzero"/><path fill="#d2dd24" d="M 292.425781 128.589844 C 300.488281 131.683594 308.128906 135.230469 315.78125 139.207031 L 321.65625 142.121094 C 336 149.511719 348.179688 158.414062 360.375 168.941406 L 366.121094 173.902344 C 374.96875 181.703125 382.90625 189.292969 390.097656 198.675781 L 383.730469 202.921875 C 377.109375 201.65625 370.871094 199.660156 364.429688 197.679688 C 358.480469 196.140625 358.480469 196.140625 353.636719 197.769531 C 348.394531 201.863281 345.902344 206.25 342.726562 212.082031 L 339.296875 218.160156 C 336.609375 223.980469 336.609375 223.980469 337.382812 229.851562 C 339.863281 236.796875 344.347656 240.539062 349.757812 245.398438 L 345.511719 249.644531 L 342.933594 246.523438 C 322.671875 222.636719 298.113281 202.574219 268.324219 191.773438 C 246.582031 185.613281 227.386719 185.421875 205.371094 190.179688 L 205.371094 185.933594 L 199 183.808594 C 195.664062 177.863281 195.664062 177.863281 192.363281 170.402344 L 189.03125 162.992188 C 184.800781 152.621094 182.925781 144.132812 184.136719 132.839844 C 188.253906 127.925781 188.253906 127.925781 194.75 124.34375 C 226.214844 114.660156 261.695312 118.089844 292.425781 128.589844 " fill-opacity="1" fill-rule="nonzero"/><path fill="#2f3138" d="M 981.449219 277.519531 C 988.082031 279.839844 990.613281 282.585938 995.253906 287.871094 C 998.015625 292.5 1000.613281 297.21875 1003.050781 302.023438 L 1005.15625 306.101562 C 1006.613281 308.929688 1008.058594 311.761719 1009.5 314.59375 C 1011.71875 318.941406 1013.949219 323.28125 1016.195312 327.613281 C 1017.613281 330.363281 1019.023438 333.117188 1020.433594 335.871094 L 1022.464844 339.808594 C 1027.105469 348.96875 1027.105469 348.96875 1027.105469 353.710938 L 1031.351562 353.710938 L 1031.316406 347.113281 C 1031.28125 339.066406 1031.25 331.019531 1031.234375 322.976562 C 1031.222656 319.484375 1031.207031 316 1031.1875 312.515625 C 1031.164062 307.507812 1031.15625 302.507812 1031.144531 297.503906 L 1031.109375 292.75 C 1031.109375 289 1031.21875 285.246094 1031.351562 281.5 L 1033.472656 279.378906 C 1045.652344 278.796875 1045.652344 278.796875 1050.460938 279.378906 L 1054.707031 283.625 C 1055.273438 288.605469 1055.273438 288.605469 1055.324219 294.921875 L 1055.40625 302.074219 L 1055.417969 309.832031 L 1055.464844 317.769531 C 1055.484375 323.3125 1055.496094 328.859375 1055.496094 334.40625 C 1055.496094 340.101562 1055.523438 345.800781 1055.578125 351.496094 C 1055.65625 359.6875 1055.679688 367.871094 1055.6875 376.066406 L 1055.777344 383.808594 L 1055.738281 390.984375 L 1055.757812 397.304688 L 1054.707031 402.558594 C 1050.796875 406.460938 1050.796875 406.460938 1046.214844 408.925781 C 1039.84375 408.925781 1039.84375 408.925781 1033.472656 406.804688 C 1027.394531 400.042969 1023 393.050781 1018.875 384.984375 L 1015.589844 378.617188 L 1012.238281 372.027344 C 1010.03125 367.714844 1007.820312 363.40625 1005.601562 359.101562 L 1002.667969 353.339844 C 998.945312 346.285156 994.996094 339.382812 991.007812 332.46875 L 990.914062 339.035156 C 990.789062 347.050781 990.628906 355.070312 990.449219 363.089844 C 990.378906 366.5625 990.320312 370.03125 990.269531 373.507812 C 990.199219 378.496094 990.09375 383.480469 989.96875 388.46875 L 989.929688 393.191406 C 989.800781 397.566406 989.800781 397.566406 988.882812 404.679688 L 982.511719 408.925781 C 975.878906 408.265625 975.878906 408.265625 969.773438 406.804688 L 967.652344 404.679688 C 967.46875 400.832031 967.386719 396.984375 967.410156 393.128906 L 967.410156 385.660156 L 967.441406 377.523438 L 967.453125 369.253906 C 967.460938 361.976562 967.476562 354.703125 967.503906 347.433594 C 967.523438 340.015625 967.535156 332.601562 967.546875 325.183594 C 967.566406 310.621094 967.601562 296.0625 967.652344 281.5 C 975.480469 277.21875 975.480469 277.21875 981.449219 277.519531 M 854.050781 277.519531 C 860.679688 279.839844 863.214844 282.585938 867.851562 287.871094 C 870.609375 292.5 873.210938 297.21875 875.648438 302.023438 L 877.753906 306.101562 C 879.210938 308.929688 880.660156 311.761719 882.101562 314.59375 C 884.320312 318.941406 886.546875 323.28125 888.796875 327.613281 C 890.210938 330.363281 891.625 333.117188 893.035156 335.871094 L 895.066406 339.808594 C 899.703125 348.96875 899.703125 348.96875 899.703125 353.710938 L 903.949219 353.710938 L 903.949219 281.5 L 912.445312 277.253906 C 918.015625 277.785156 918.015625 277.785156 923.058594 279.378906 L 927.304688 283.625 C 927.875 288.605469 927.875 288.605469 927.921875 294.921875 L 928.007812 302.074219 L 928.019531 309.832031 L 928.0625 317.769531 C 928.085938 323.3125 928.09375 328.859375 928.09375 334.40625 C 928.09375 340.101562 928.125 345.800781 928.175781 351.496094 C 928.257812 359.6875 928.277344 367.871094 928.285156 376.066406 L 928.378906 383.808594 L 928.339844 390.984375 L 928.355469 397.304688 L 927.304688 402.558594 C 923.394531 406.460938 923.394531 406.460938 918.8125 408.925781 C 912.445312 408.925781 912.445312 408.925781 906.074219 406.804688 C 899.132812 399.242188 894.472656 390.875 889.933594 381.75 L 887.859375 377.667969 C 884.949219 371.949219 882.074219 366.214844 879.191406 360.484375 C 877.070312 356.289062 874.945312 352.089844 872.8125 347.902344 L 869 340.320312 L 865.730469 334.59375 L 861.484375 332.46875 L 861.585938 339.035156 C 861.695312 347.050781 861.777344 355.070312 861.835938 363.089844 C 861.863281 366.5625 861.90625 370.03125 861.960938 373.507812 C 862.042969 378.496094 862.078125 383.480469 862.101562 388.46875 L 862.203125 393.191406 C 862.203125 397.566406 862.203125 397.566406 861.484375 404.679688 L 855.113281 408.925781 C 848.476562 408.265625 848.476562 408.265625 842.375 406.804688 L 840.25 404.679688 C 840.0625 400.832031 839.984375 396.984375 840.007812 393.128906 L 840.007812 385.660156 L 840.042969 377.523438 L 840.054688 369.253906 C 840.058594 361.976562 840.074219 354.703125 840.101562 347.433594 C 840.121094 340.015625 840.136719 332.601562 840.144531 325.183594 C 840.167969 310.621094 840.203125 296.0625 840.25 281.5 C 848.082031 277.21875 848.082031 277.21875 854.050781 277.519531 " fill-opacity="1" fill-rule="nonzero"/><path fill="#fa5b1a" d="M 373.113281 294.246094 L 381.605469 294.246094 L 385.851562 300.613281 C 385.5 308.191406 384.085938 312.765625 380.160156 319.28125 C 354.292969 352.710938 326.0625 383.636719 286.070312 400.042969 C 268.28125 406.722656 251.289062 411.398438 232.175781 411.1875 L 225.359375 411.125 L 220.234375 411.050781 L 222.359375 402.558594 L 211.742188 400.433594 C 209.046875 392.671875 210.132812 386.648438 211.609375 378.660156 L 212.863281 371.726562 L 213.863281 366.449219 L 218.109375 366.449219 L 218.109375 362.203125 L 223.175781 362.351562 C 256.0625 362.898438 283.460938 356.617188 312.730469 341.5 C 333.382812 329.75 351.160156 314.753906 368.070312 298.214844 Z M 373.113281 294.246094 " fill-opacity="1" fill-rule="nonzero"/><path fill="#4dd482" d="M 445.304688 277.253906 C 451.8125 283.636719 458.105469 290.222656 464.191406 297.003906 C 479.632812 314.21875 495.269531 329.265625 515.375 340.96875 C 512.742188 356.511719 506.039062 368.933594 496.265625 381.316406 L 489.898438 383.441406 C 484.632812 380.394531 484.632812 380.394531 478.886719 376.144531 L 473.085938 371.902344 L 468.664062 368.578125 C 474.230469 374.46875 479.3125 379.214844 486.183594 383.574219 L 492.019531 387.691406 C 493.878906 392.46875 493.878906 392.46875 494.144531 396.183594 C 472.082031 389.539062 454.207031 374.757812 436.8125 360.082031 L 431.464844 355.601562 C 423.109375 348.421875 416.472656 342.367188 411.335938 332.46875 L 410.273438 325.699219 L 409.210938 319.726562 L 402.84375 315.480469 C 401.382812 308.84375 401.382812 308.84375 400.71875 302.738281 L 404.285156 300.175781 L 408.945312 296.761719 L 413.574219 293.402344 C 418.191406 289.925781 418.191406 289.925781 421.949219 283.625 L 428.851562 284.953125 C 436.492188 286.320312 436.492188 286.320312 441.988281 283.761719 L 445.304688 281.5 Z M 445.304688 277.253906 " fill-opacity="1" fill-rule="nonzero"/><path fill="#33353c" d="M 1157.292969 281.898438 C 1165.390625 287.363281 1171.320312 293.902344 1175.738281 302.738281 C 1176 308.632812 1176.136719 314.464844 1176.167969 320.359375 L 1176.203125 325.679688 C 1176.222656 329.398438 1176.238281 333.121094 1176.246094 336.839844 C 1176.269531 342.507812 1176.332031 348.175781 1176.398438 353.839844 C 1176.414062 357.460938 1176.425781 361.078125 1176.433594 364.695312 L 1176.515625 369.800781 C 1176.480469 377.835938 1175.871094 383.109375 1172.824219 390.683594 C 1168.832031 397.039062 1164.980469 400.523438 1158.75 404.679688 C 1148.246094 409.710938 1138.898438 409.796875 1127.398438 409.589844 C 1119.464844 408.820312 1113.742188 407.191406 1106.914062 403.144531 C 1101.484375 398.765625 1098.296875 393.789062 1095.050781 387.691406 C 1092.507812 380.050781 1092.503906 372.992188 1092.421875 365.03125 L 1092.367188 360.183594 C 1092.339844 356.792969 1092.316406 353.402344 1092.300781 350.011719 C 1092.273438 346.566406 1092.234375 343.121094 1092.167969 339.675781 C 1091.578125 307.425781 1091.578125 307.425781 1096.917969 296.441406 C 1101.601562 289.738281 1105 285.664062 1112.039062 281.5 C 1127.558594 275.976562 1141.761719 276.332031 1157.292969 281.898438 M 1124.246094 298.625 L 1118.40625 302.738281 C 1114.640625 311.625 1113.617188 319.300781 1113.59375 328.894531 L 1113.582031 336.46875 L 1113.628906 344.285156 L 1113.582031 352.128906 L 1113.59375 359.691406 L 1113.609375 366.554688 C 1114.179688 373.019531 1115.613281 377.617188 1118.40625 383.441406 C 1121.066406 387.34375 1121.066406 387.34375 1124.777344 389.8125 C 1131.257812 391.136719 1137.367188 390.839844 1143.890625 389.8125 C 1149.550781 386.984375 1149.550781 386.984375 1152.382812 381.316406 C 1155.207031 365.945312 1154.597656 350.691406 1154.105469 335.125 C 1154.066406 332.539062 1154.027344 329.953125 1153.988281 327.289062 L 1153.75 319.761719 L 1153.574219 312.945312 C 1152.808594 306.746094 1152.808594 306.746094 1148.429688 302.066406 C 1143.960938 298.128906 1143.960938 298.128906 1137.78125 296.5 C 1130.988281 296 1130.988281 296 1124.246094 298.625 " fill-opacity="1" fill-rule="nonzero"/><path fill="#34363d" d="M 1064.351562 123.765625 C 1071.023438 126.84375 1075.710938 130.5 1081.117188 135.492188 C 1085.652344 143.484375 1086.261719 149.117188 1086.558594 158.320312 L 1082.3125 164.695312 C 1074.878906 165.222656 1074.878906 165.222656 1067.445312 164.695312 L 1063.199219 162.570312 C 1061.761719 157.621094 1060.34375 152.667969 1058.953125 147.707031 L 1054.707031 143.457031 C 1047.753906 141.601562 1043.136719 141.039062 1036.128906 142.792969 C 1031.261719 145.171875 1031.261719 145.171875 1028.964844 149.070312 C 1026.4375 155.867188 1026.554688 161.761719 1026.539062 169.007812 L 1026.527344 173.339844 C 1026.523438 176.351562 1026.53125 179.363281 1026.550781 182.378906 C 1026.574219 186.980469 1026.550781 191.574219 1026.523438 196.175781 C 1026.523438 199.109375 1026.527344 202.046875 1026.539062 204.976562 L 1026.554688 213.039062 C 1027.070312 219.5 1027.734375 223.109375 1031.351562 228.40625 C 1036.976562 231.222656 1042.183594 231.230469 1048.394531 231.085938 C 1052.953125 230.746094 1052.953125 230.746094 1057.757812 227.609375 C 1062.789062 219.15625 1062.832031 210.484375 1063.199219 200.796875 C 1059.125 200.863281 1059.125 200.863281 1054.972656 200.929688 C 1046.746094 201.0625 1046.746094 201.0625 1041.96875 198.675781 C 1041.875 194.429688 1041.878906 190.179688 1041.96875 185.933594 L 1044.089844 183.808594 C 1047.097656 183.636719 1050.113281 183.566406 1053.125 183.601562 L 1058.621094 183.621094 L 1064.394531 183.675781 L 1070.199219 183.703125 C 1074.945312 183.730469 1079.691406 183.765625 1084.433594 183.808594 C 1088.589844 196.273438 1087.882812 210.636719 1085.503906 223.480469 C 1083.117188 231.484375 1080.441406 236.585938 1075.144531 243.140625 C 1069.558594 247.527344 1065.660156 249.59375 1058.953125 251.769531 C 1045.746094 253.125 1031.777344 253.878906 1019.40625 248.449219 C 1013.753906 245.046875 1010.488281 241.464844 1007.0625 235.839844 C 1000.675781 221.53125 1001.226562 208.539062 1001.230469 192.984375 C 1001.226562 188.628906 1001.1875 184.277344 1001.144531 179.925781 C 1001.121094 165.648438 1001.261719 152.785156 1005.867188 139.207031 C 1010.03125 132.269531 1013.632812 129.050781 1020.46875 124.738281 C 1033.878906 119.699219 1050.699219 119.859375 1064.351562 123.765625 " fill-opacity="1" fill-rule="nonzero"/><path fill="#303239" d="M 1177.859375 122.21875 C 1184.421875 124.0625 1189.476562 126.53125 1194.847656 130.714844 C 1199.320312 135.300781 1202.464844 138.828125 1204.578125 144.878906 C 1205.851562 152.007812 1205.898438 159.101562 1205.96875 166.320312 L 1206.023438 171.164062 C 1206.050781 174.542969 1206.074219 177.914062 1206.089844 181.292969 C 1206.117188 184.722656 1206.160156 188.15625 1206.222656 191.585938 C 1206.808594 223.699219 1206.808594 223.699219 1201.582031 234.683594 C 1196.484375 241.828125 1191.949219 245.539062 1184.230469 249.644531 C 1172.601562 253.519531 1160.25 252.753906 1148.136719 251.769531 C 1141.621094 249.765625 1138.738281 247.671875 1133.269531 243.273438 C 1127.941406 237.519531 1125.132812 233.71875 1122.652344 226.285156 C 1122.398438 220.5 1122.253906 214.710938 1122.222656 208.917969 L 1122.1875 203.757812 C 1122.164062 200.144531 1122.152344 196.535156 1122.144531 192.929688 C 1122.121094 187.4375 1122.058594 181.941406 1121.992188 176.445312 C 1121.976562 172.933594 1121.964844 169.421875 1121.957031 165.914062 L 1121.875 160.964844 C 1121.910156 152.964844 1122.558594 147.945312 1125.683594 140.414062 C 1130.242188 132.972656 1134.734375 129.46875 1141.765625 124.34375 C 1153.402344 120.460938 1165.730469 121.253906 1177.859375 122.21875 M 1153.972656 141.332031 L 1148.136719 145.578125 C 1142.511719 159.300781 1143.183594 173.417969 1143.222656 188.054688 L 1143.121094 195.453125 C 1143.042969 210.394531 1143.042969 210.394531 1146.847656 224.691406 L 1150.257812 230.53125 C 1156.445312 233.625 1162.113281 233.335938 1168.953125 233.257812 C 1174.042969 232.964844 1174.042969 232.964844 1178.925781 228.9375 C 1182.171875 224.066406 1183.175781 221.347656 1184.230469 215.664062 C 1184.769531 205.804688 1184.722656 195.9375 1184.761719 186.0625 L 1184.894531 177.855469 L 1184.925781 169.945312 L 1184.988281 162.726562 C 1184.140625 155.398438 1182.148438 151.515625 1177.859375 145.578125 C 1173.855469 140.898438 1173.855469 140.898438 1167.777344 139.605469 C 1160.773438 138.800781 1160.773438 138.800781 1153.972656 141.332031 " fill-opacity="1" fill-rule="nonzero"/><path fill="#f9880f" d="M 145.917969 309.109375 L 149.898438 314.15625 C 154.195312 319.660156 154.195312 319.660156 158.65625 323.976562 L 158.65625 313.355469 C 164.175781 318.660156 169.144531 324.222656 174.050781 330.082031 C 185.121094 342.703125 195.902344 350.820312 211.742188 356.628906 C 215.269531 357.808594 218.804688 358.972656 222.359375 360.082031 L 218.109375 362.203125 L 218.109375 366.449219 L 213.863281 366.449219 L 211.742188 398.304688 L 222.359375 402.558594 L 220.234375 411.050781 C 195.972656 409.976562 173.082031 402.335938 152.289062 389.8125 C 136.914062 379.1875 123.351562 366.417969 111.941406 351.582031 L 111.941406 347.335938 L 116.1875 347.335938 C 114.910156 338.113281 113.496094 328.910156 111.941406 319.726562 C 118.15625 316.902344 123.316406 315.375 130.125 314.421875 C 136.519531 313.488281 140.464844 312.382812 145.917969 309.109375 " fill-opacity="1" fill-rule="nonzero"/><path fill="#33353b" d="M 929.429688 120.09375 C 933.828125 122.644531 933.828125 122.644531 937.921875 126.464844 C 940.246094 131.355469 940.246094 131.355469 942.039062 137.160156 L 944.121094 143.753906 L 946.257812 150.871094 L 948.523438 158.199219 C 950.09375 163.308594 951.648438 168.425781 953.195312 173.546875 C 955.566406 181.382812 957.992188 189.203125 960.421875 197.023438 C 961.941406 201.992188 963.457031 206.960938 964.96875 211.929688 L 967.175781 219.027344 L 969.152344 225.660156 L 970.921875 231.476562 C 972.027344 237.636719 971.757812 241.589844 969.773438 247.519531 L 963.40625 251.769531 C 957.699219 252.035156 957.699219 252.035156 952.785156 251.769531 C 948.808594 242.734375 945.273438 233.527344 942.167969 224.15625 L 901.828125 222.035156 L 898.90625 234.511719 C 897.894531 238.886719 896.742188 243.222656 895.457031 247.519531 L 891.210938 251.769531 C 884.972656 251.371094 884.972656 251.371094 878.46875 249.644531 C 874.878906 246.355469 874.878906 246.355469 872.097656 243.273438 C 881.136719 211.914062 890.179688 180.550781 899.570312 149.296875 L 901.382812 143.179688 L 903.078125 137.582031 L 904.527344 132.753906 C 906.074219 128.589844 906.074219 128.589844 910.320312 122.21875 C 917.304688 119.890625 922.105469 119.496094 929.429688 120.09375 M 920.9375 151.953125 C 918.449219 160 915.976562 168.054688 913.503906 176.109375 L 911.355469 183.058594 L 909.324219 189.695312 L 907.4375 195.832031 C 905.886719 200.621094 905.886719 200.621094 906.074219 205.042969 C 916.792969 207.246094 927.039062 207.386719 937.921875 207.167969 C 936.5 195.238281 933.839844 183.960938 930.625 172.394531 L 929.226562 167.128906 C 928.015625 162.738281 926.613281 158.398438 925.183594 154.074219 Z M 920.9375 151.953125 " fill-opacity="1" fill-rule="nonzero"/><path fill="#32343b" d="M 1372.28125 275.925781 L 1379.578125 277.253906 C 1387.894531 285 1390.609375 294.109375 1393.890625 304.671875 L 1395.871094 311.300781 L 1397.976562 318.179688 C 1399.433594 322.964844 1400.882812 327.757812 1402.316406 332.550781 C 1404.523438 339.886719 1406.765625 347.210938 1409.015625 354.53125 C 1410.429688 359.191406 1411.84375 363.847656 1413.25 368.511719 L 1415.285156 375.140625 L 1417.132812 381.347656 C 1417.671875 383.140625 1418.214844 384.933594 1418.769531 386.78125 C 1420.003906 392.300781 1420.46875 396.921875 1419.921875 402.558594 C 1415.144531 406.539062 1415.144531 406.539062 1409.304688 408.925781 L 1404.792969 409.058594 C 1400.8125 406.804688 1400.8125 406.804688 1397.230469 401.226562 C 1394.445312 394.058594 1394.445312 394.058594 1392.320312 379.195312 L 1349.851562 379.195312 L 1346.929688 391.671875 C 1345.917969 396.042969 1344.769531 400.378906 1343.484375 404.679688 L 1339.234375 408.925781 C 1332.867188 408.394531 1332.867188 408.394531 1326.492188 406.804688 L 1322.246094 402.558594 C 1322.996094 388.78125 1326.753906 376.066406 1330.707031 362.910156 L 1332.625 356.488281 C 1333.957031 352.035156 1335.296875 347.578125 1336.648438 343.128906 C 1338.703125 336.328125 1340.699219 329.515625 1342.699219 322.703125 L 1346.632812 309.683594 L 1348.417969 303.535156 C 1351.160156 294.65625 1353.511719 288.601562 1359.402344 281.28125 C 1364.714844 277.253906 1364.714844 277.253906 1372.277344 275.925781 M 1368.960938 309.109375 C 1366.816406 316.316406 1364.699219 323.53125 1362.589844 330.746094 L 1360.75 336.925781 L 1359.007812 342.917969 L 1357.390625 348.410156 C 1355.84375 354.53125 1355.84375 354.53125 1356.222656 364.328125 L 1385.945312 364.328125 C 1384.6875 351.847656 1382.238281 340.359375 1378.648438 328.355469 L 1377.25 323.425781 C 1376.039062 319.316406 1374.640625 315.269531 1373.207031 311.234375 Z M 1368.960938 309.109375 " fill-opacity="1" fill-rule="nonzero"/><path fill="#45a3cb" d="M 625.789062 143.457031 L 630.039062 147.707031 L 613.050781 181.683594 L 609.621094 180.441406 C 587.382812 172.664062 566.75 168.613281 543.308594 172.378906 C 503.257812 180.183594 472.230469 201.09375 441.460938 227.078125 L 436.8125 230.53125 C 431.90625 230 431.90625 230 428.320312 228.40625 C 436.179688 205.683594 457.667969 186.921875 475.035156 171.066406 C 494.964844 154.417969 521.035156 141.375 546.488281 135.890625 C 573.617188 132.347656 600.066406 133.648438 625.789062 143.457031 " fill-opacity="1" fill-rule="nonzero"/><path fill="#2f3138" d="M 1307.519531 123.148438 C 1315.445312 126.03125 1315.445312 126.03125 1318 128.589844 C 1318.402344 134.828125 1318.402344 134.828125 1318 141.332031 L 1313.753906 145.578125 C 1309.832031 145.066406 1309.832031 145.066406 1305.132812 143.722656 C 1292.21875 140.496094 1279.921875 139.832031 1267.042969 143.457031 L 1266.246094 151.421875 C 1266.097656 152.898438 1265.945312 154.378906 1265.800781 155.898438 L 1267.042969 160.445312 C 1275.550781 167.230469 1284.917969 171.480469 1294.777344 175.980469 C 1303.339844 180.070312 1310.832031 183.804688 1316.542969 191.640625 C 1321.339844 201.0625 1323.039062 208.902344 1322.820312 219.585938 C 1321.773438 227.941406 1318.820312 234.453125 1313.753906 241.148438 C 1307.132812 247.316406 1300.398438 250.878906 1291.617188 253.03125 C 1279.402344 254.703125 1268.046875 253.84375 1256.421875 249.644531 C 1249.875 245.832031 1244.777344 242.238281 1239.4375 236.902344 C 1238.777344 230.53125 1238.777344 230.53125 1239.4375 224.15625 L 1245.808594 219.910156 C 1249.65625 220.175781 1249.65625 220.175781 1254.300781 222.035156 L 1259.742188 226.417969 C 1267.378906 230.722656 1270.589844 231.148438 1279.117188 231.195312 C 1285.753906 231.019531 1290.433594 230.519531 1296.769531 228.40625 C 1297.117188 225.449219 1297.363281 222.480469 1297.566406 219.515625 C 1297.710938 217.863281 1297.859375 216.214844 1298.011719 214.511719 L 1296.769531 209.292969 C 1286.46875 198.972656 1274.613281 193.890625 1261.390625 187.929688 C 1253.050781 183.078125 1249.277344 178.855469 1243.683594 171.066406 C 1241.046875 163.152344 1240.71875 155.929688 1241.5625 147.707031 C 1244.449219 139.523438 1247.625 135.269531 1253.773438 129.121094 C 1269.976562 117.898438 1289.097656 117.171875 1307.519531 123.148438 M 1726.585938 278.53125 C 1733.003906 280.855469 1737.8125 283.015625 1742.667969 287.871094 C 1741.875 294.511719 1741.875 294.511719 1740.546875 300.613281 C 1735.902344 301.945312 1735.902344 301.945312 1729.929688 302.738281 L 1725.289062 300.75 C 1716.28125 297.34375 1707.585938 297.195312 1698.078125 298.492188 C 1692.132812 301.597656 1692.132812 301.597656 1689.585938 306.988281 L 1689.058594 312.164062 C 1691.238281 317.585938 1691.238281 317.585938 1694.921875 320.265625 C 1702.804688 325.371094 1711.066406 329.324219 1719.578125 333.269531 C 1729.800781 338.226562 1736.292969 344.367188 1742.667969 353.710938 C 1745.515625 359.40625 1745.152344 363.941406 1745.195312 370.300781 L 1745.28125 376.976562 C 1744.773438 383.6875 1743.640625 388.105469 1740.546875 394.058594 C 1737.105469 397.808594 1737.105469 397.808594 1733.25 400.960938 L 1729.40625 404.183594 C 1725.683594 406.804688 1725.683594 406.804688 1719.3125 408.925781 C 1704.789062 409.992188 1689.96875 410.957031 1676.3125 405.210938 C 1671.421875 402.578125 1667.976562 400.085938 1663.839844 396.320312 C 1661.984375 391.9375 1661.984375 391.9375 1662.382812 386.359375 C 1664.105469 381.316406 1664.105469 381.316406 1668.351562 377.070312 C 1673.132812 377.335938 1673.132812 377.335938 1678.96875 379.195312 L 1684.675781 383.574219 C 1691.738281 387.707031 1694.679688 388.457031 1702.589844 388.75 C 1709.5 388.429688 1712.570312 387.90625 1718.652344 384.375 C 1721.941406 379.097656 1721.941406 379.097656 1721.96875 371.894531 C 1720.066406 364.558594 1720.066406 364.558594 1716.175781 361.457031 C 1711.671875 358.582031 1707.09375 356.121094 1702.328125 353.710938 C 1676.863281 340.710938 1676.863281 340.710938 1668.351562 328.222656 C 1664.878906 321.273438 1665.550781 314.144531 1665.648438 306.480469 C 1666.230469 300.613281 1666.230469 300.613281 1669.546875 293.316406 C 1676.558594 285.9375 1683.742188 281.199219 1693.601562 278.125 C 1704.378906 276.027344 1715.917969 275.882812 1726.585938 278.53125 M 1626.675781 278.914062 L 1634.378906 279.378906 C 1635.707031 285.480469 1635.707031 285.480469 1636.5 292.121094 L 1632.253906 296.367188 C 1626.902344 297.042969 1626.902344 297.042969 1620.230469 297.246094 L 1613.015625 297.496094 L 1605.449219 297.691406 L 1597.835938 297.941406 C 1591.613281 298.148438 1585.390625 298.320312 1579.175781 298.492188 L 1577.050781 334.59375 L 1591.515625 334.199219 C 1599.652344 333.972656 1599.652344 333.972656 1606.777344 334.59375 C 1610.914062 337.804688 1610.914062 337.804688 1613.144531 340.96875 L 1608.898438 351.582031 L 1577.050781 351.582031 L 1579.175781 387.691406 L 1590.632812 388.003906 L 1605.449219 388.484375 C 1607.945312 388.550781 1610.441406 388.617188 1613.015625 388.6875 L 1620.230469 388.9375 L 1626.902344 389.136719 L 1632.253906 389.8125 L 1636.5 394.058594 C 1637.167969 399.371094 1637.167969 399.371094 1636.5 404.679688 C 1630.132812 408.925781 1630.132812 408.925781 1623.042969 409.476562 C 1620.140625 409.507812 1617.238281 409.511719 1614.332031 409.492188 L 1609.675781 409.503906 C 1606.433594 409.507812 1603.191406 409.5 1599.949219 409.480469 C 1594.976562 409.457031 1590.007812 409.480469 1585.035156 409.507812 C 1581.882812 409.507812 1578.730469 409.503906 1575.582031 409.492188 L 1571.0625 409.519531 C 1567.390625 409.480469 1563.722656 409.222656 1560.0625 408.925781 L 1555.816406 404.679688 C 1555.195312 399.789062 1555.195312 399.789062 1555.070312 393.609375 L 1554.902344 386.605469 L 1554.789062 379.011719 L 1554.632812 371.234375 C 1554.53125 365.796875 1554.4375 360.359375 1554.355469 354.921875 C 1554.222656 346.589844 1554.046875 338.261719 1553.863281 329.933594 L 1553.59375 314.105469 L 1553.425781 306.539062 L 1553.339844 299.492188 L 1553.234375 293.300781 C 1553.71875 287.566406 1554.824219 284.1875 1557.9375 279.378906 C 1575.054688 270.820312 1607.886719 277.820312 1626.671875 278.914062 " fill-opacity="1" fill-rule="nonzero"/><path fill="#31333a" d="M 1223.476562 278.007812 L 1228.820312 281.5 C 1231.964844 287.820312 1233.59375 294.472656 1235.355469 301.277344 L 1237.007812 307.230469 C 1238.746094 313.507812 1240.417969 319.800781 1242.09375 326.101562 C 1243.8125 332.394531 1245.535156 338.679688 1247.265625 344.96875 C 1248.339844 348.886719 1249.398438 352.804688 1250.453125 356.726562 L 1251.890625 362.097656 L 1253.148438 366.832031 C 1254.226562 370.855469 1254.226562 370.855469 1256.421875 374.945312 L 1258.628906 366.894531 C 1261.339844 357.023438 1264.085938 347.160156 1266.84375 337.304688 C 1268.03125 333.039062 1269.207031 328.773438 1270.375 324.5 C 1272.058594 318.355469 1273.777344 312.222656 1275.5 306.089844 L 1277.054688 300.308594 C 1279.367188 292.210938 1281.0625 286.746094 1286.550781 280.226562 L 1290.398438 277.253906 C 1302.871094 281.234375 1302.871094 281.234375 1305.261719 283.625 C 1304.261719 298.003906 1300.390625 311.15625 1296.1875 324.890625 L 1294.097656 331.785156 C 1292.644531 336.566406 1291.1875 341.347656 1289.722656 346.125 C 1287.472656 353.457031 1285.273438 360.800781 1283.066406 368.144531 C 1281.648438 372.796875 1280.226562 377.445312 1278.804688 382.097656 L 1276.808594 388.765625 L 1274.898438 394.917969 L 1273.246094 400.332031 L 1271.289062 404.679688 C 1264.917969 408.925781 1264.917969 408.925781 1260.804688 409.492188 L 1256.421875 409.457031 L 1252.042969 409.492188 C 1247.929688 408.925781 1247.929688 408.925781 1241.5625 404.679688 C 1239.507812 400.144531 1239.507812 400.144531 1237.714844 394.457031 L 1235.65625 388.011719 L 1233.507812 381.019531 L 1231.25 373.847656 C 1229.675781 368.824219 1228.117188 363.804688 1226.5625 358.78125 C 1224.183594 351.105469 1221.785156 343.441406 1219.355469 335.78125 L 1214.796875 321.152344 L 1212.605469 314.214844 L 1210.605469 307.691406 L 1208.832031 301.984375 C 1207.421875 295.617188 1207.0625 290.125 1207.589844 283.625 C 1213.117188 278.566406 1215.988281 276.933594 1223.476562 278.007812 " fill-opacity="1" fill-rule="nonzero"/><path fill="#fcd707" d="M 193.425781 127.261719 L 196.875 128.589844 L 186.257812 132.839844 C 184.457031 148.359375 190.816406 161.261719 196.875 175.3125 C 198.910156 180.101562 198.910156 180.101562 201.121094 183.808594 L 205.371094 185.933594 L 203.246094 192.300781 C 198.988281 195.042969 198.988281 195.042969 193.558594 197.878906 C 181.628906 204.703125 173.34375 213.300781 165.027344 224.15625 L 162.902344 228.40625 L 158.65625 228.40625 L 158.65625 224.15625 L 152.289062 224.15625 L 152.289062 219.910156 L 145.917969 217.789062 C 140.210938 212.613281 140.210938 212.613281 135.296875 207.167969 L 135.296875 202.921875 C 128.964844 199.402344 123.433594 197.242188 116.1875 196.550781 C 109.304688 198.371094 109.304688 198.371094 103.449219 200.796875 C 110.417969 181.421875 124.425781 165.535156 139.859375 152.25 C 176.667969 124.617188 176.667969 124.617188 193.425781 127.261719 " fill-opacity="1" fill-rule="nonzero"/><path fill="#2f3138" d="M 1453.496094 276.972656 L 1460.953125 276.960938 L 1468.761719 276.988281 L 1476.367188 276.960938 C 1491.640625 276.980469 1506.660156 277.675781 1521.84375 279.378906 C 1522.671875 283.601562 1523.367188 287.855469 1523.96875 292.121094 L 1521.84375 296.367188 C 1513.347656 298.492188 1513.347656 298.492188 1492.113281 298.492188 L 1489.992188 404.679688 L 1481.5 408.925781 C 1474.734375 408.265625 1474.734375 408.265625 1468.761719 406.804688 L 1466.636719 404.679688 C 1466.390625 401.355469 1466.242188 398.027344 1466.203125 394.6875 L 1466.074219 388.246094 L 1465.964844 381.246094 L 1465.832031 374.109375 C 1465.695312 366.558594 1465.5625 359.003906 1465.441406 351.453125 L 1465.164062 336.136719 C 1464.933594 323.585938 1464.71875 311.039062 1464.511719 298.492188 L 1459.628906 298.566406 C 1457.515625 298.585938 1455.40625 298.605469 1453.230469 298.625 L 1446.886719 298.699219 C 1441.152344 298.492188 1441.152344 298.492188 1434.785156 296.367188 C 1433.957031 292.144531 1433.261719 287.886719 1432.660156 283.625 L 1434.785156 279.378906 C 1441.546875 277.121094 1446.394531 276.976562 1453.496094 276.972656 " fill-opacity="1" fill-rule="nonzero"/><path fill="#23d1a3" d="M 513.253906 343.089844 C 521.027344 344.789062 528.246094 347.59375 535.683594 350.390625 C 548.722656 355.117188 561.128906 358.042969 574.828125 360.082031 L 572.707031 404.679688 L 568.460938 406.804688 L 570.582031 415.296875 C 545.269531 414.296875 521.117188 411.683594 497.851562 400.769531 C 494.144531 398.304688 494.144531 398.304688 490.960938 392.203125 L 487.773438 385.566406 C 483.039062 381.925781 478.164062 378.84375 473.035156 375.785156 C 468.664062 372.824219 468.664062 372.824219 464.417969 366.449219 C 473.105469 369.347656 479.347656 373.683594 486.398438 379.351562 L 489.898438 381.316406 L 496.265625 379.195312 C 500.269531 373.671875 500.269531 373.671875 503.964844 366.980469 L 507.898438 360.246094 C 510.828125 354.324219 512.363281 349.589844 513.253906 343.089844 " fill-opacity="1" fill-rule="nonzero"/><path fill="#adda3c" d="M 320.027344 143.457031 C 344.738281 150.492188 365.789062 172.347656 383.730469 190.179688 C 385.925781 192.957031 388.085938 195.765625 390.097656 198.675781 L 383.730469 202.921875 C 377.109375 201.65625 370.871094 199.660156 364.429688 197.679688 C 358.480469 196.140625 358.480469 196.140625 353.636719 197.769531 C 348.394531 201.863281 345.902344 206.25 342.726562 212.082031 L 339.296875 218.160156 C 336.609375 223.980469 336.609375 223.980469 337.382812 229.851562 C 339.863281 236.796875 344.347656 240.539062 349.757812 245.398438 L 345.511719 249.644531 L 342.933594 246.523438 C 329.207031 230.339844 313.988281 217.214844 296.675781 205.042969 C 297.566406 197.871094 298.507812 190.707031 299.460938 183.542969 L 300.21875 177.421875 C 301.734375 166.238281 303.582031 157.410156 309.414062 147.707031 L 320.027344 147.707031 Z M 320.027344 143.457031 " fill-opacity="1" fill-rule="nonzero"/><path fill="#2f3138" d="M 778.671875 122.21875 C 790.851562 121.636719 790.851562 121.636719 795.660156 122.21875 L 799.90625 126.464844 C 800.414062 131.007812 800.414062 131.007812 800.386719 136.699219 L 800.386719 143.140625 L 800.320312 150.113281 L 800.300781 157.234375 C 800.277344 164.761719 800.226562 172.296875 800.171875 179.824219 C 800.148438 184.921875 800.128906 190.019531 800.113281 195.117188 C 800.070312 207.625 799.988281 220.140625 799.90625 232.65625 L 846.621094 232.65625 L 850.867188 243.273438 C 849.007812 248.183594 849.007812 248.183594 846.621094 251.769531 C 837.667969 251.875 828.707031 251.949219 819.75 252 C 816.707031 252.023438 813.664062 252.050781 810.617188 252.085938 C 806.234375 252.140625 801.855469 252.164062 797.472656 252.179688 L 789.492188 252.25 C 782.921875 251.769531 782.921875 251.769531 776.550781 247.519531 C 775.769531 242.34375 775.769531 242.34375 775.792969 235.765625 L 775.773438 228.3125 L 775.855469 220.234375 L 775.867188 211.984375 C 775.878906 206.21875 775.902344 200.453125 775.949219 194.6875 C 776.015625 187.285156 776.035156 179.882812 776.042969 172.476562 C 776.058594 165.433594 776.085938 158.390625 776.117188 151.34375 L 776.144531 143.253906 L 776.207031 135.824219 L 776.25 129.246094 L 776.550781 124.34375 Z M 778.671875 122.21875 " fill-opacity="1" fill-rule="nonzero"/><path fill="#2acdb7" d="M 621.542969 343.089844 L 625.789062 345.214844 C 624.332031 349.195312 624.332031 349.195312 621.542969 353.710938 C 615.972656 356.363281 615.972656 356.363281 610.929688 357.957031 C 615.746094 370.597656 615.746094 370.597656 623.539062 381.453125 C 628.832031 383.859375 632.777344 383.921875 638.53125 383.441406 L 638.53125 379.195312 L 647.027344 379.195312 L 649.148438 385.566406 C 639.097656 396.875 628.875 402.109375 614.660156 407.09375 C 598.921875 412 584.929688 414.382812 568.460938 413.171875 L 568.460938 404.679688 L 572.707031 404.679688 L 572.675781 400.847656 C 572.632812 395.136719 572.601562 389.417969 572.574219 383.707031 L 572.519531 377.675781 L 572.5 371.910156 L 572.464844 366.585938 C 572.707031 362.203125 572.707031 362.203125 574.828125 357.957031 C 579.867188 356.988281 579.867188 356.988281 586.378906 356.230469 C 598.195312 354.507812 607.070312 350.980469 617.382812 345.058594 Z M 621.542969 343.089844 " fill-opacity="1" fill-rule="nonzero"/><path fill="#2f3138" d="M 791.8125 277.785156 L 797.78125 279.378906 C 800.507812 284.835938 800.222656 288.8125 800.28125 294.921875 L 800.363281 302.074219 L 800.464844 317.769531 C 800.496094 323.3125 800.511719 328.859375 800.53125 334.40625 C 800.550781 340.101562 800.59375 345.800781 800.664062 351.496094 C 800.75 359.6875 800.789062 367.871094 800.808594 376.066406 L 800.925781 383.808594 L 800.90625 390.984375 L 800.945312 397.304688 L 799.90625 402.558594 C 796.019531 406.496094 796.019531 406.496094 791.414062 408.925781 C 784.644531 408.394531 784.644531 408.394531 778.671875 406.804688 L 776.550781 404.679688 C 776.363281 400.832031 776.285156 396.984375 776.308594 393.128906 L 776.308594 385.660156 L 776.34375 377.523438 L 776.351562 369.253906 C 776.359375 361.976562 776.375 354.703125 776.402344 347.433594 C 776.421875 340.015625 776.4375 332.601562 776.445312 325.183594 C 776.46875 310.621094 776.503906 296.0625 776.550781 281.5 C 782.558594 278.109375 784.664062 277.222656 791.8125 277.785156 " fill-opacity="1" fill-rule="nonzero"/><path fill="#fcd706" d="M 193.03125 127.394531 L 196.875 128.589844 L 186.257812 132.839844 C 184.457031 148.359375 190.816406 161.261719 196.875 175.3125 C 198.910156 180.101562 198.910156 180.101562 201.121094 183.808594 L 205.371094 185.933594 L 203.246094 192.300781 C 198.394531 195.25 198.394531 195.25 192.5 198.011719 C 190.542969 198.9375 188.59375 199.867188 186.582031 200.824219 L 182.011719 202.921875 L 181.582031 198.53125 C 179.34375 190.300781 174.824219 184.3125 169.804688 177.570312 L 167.03125 173.742188 C 161.011719 165.488281 154.648438 157.613281 148.042969 149.828125 C 157.316406 138.628906 168.695312 133.949219 182.011719 128.589844 C 188.382812 126.464844 188.382812 126.464844 193.03125 127.394531 " fill-opacity="1" fill-rule="nonzero"/><path fill="#edde42" d="M 213.863281 124.34375 L 214.792969 130.050781 C 216.28125 138.90625 216.28125 138.90625 218.109375 147.707031 L 220.234375 149.828125 C 220.902344 155.035156 221.433594 160.253906 221.824219 165.488281 L 222.265625 169.902344 C 222.589844 174.167969 222.589844 174.167969 222.359375 181.683594 C 219.5625 185.792969 219.5625 185.792969 215.988281 188.054688 C 210.28125 189.515625 210.28125 189.515625 205.371094 190.179688 L 205.371094 185.933594 L 199 183.808594 C 195.664062 177.863281 195.664062 177.863281 192.363281 170.402344 L 189.03125 162.992188 C 184.800781 152.621094 182.925781 144.132812 184.136719 132.839844 C 188.824219 127.886719 192.710938 125.171875 199 122.617188 C 204.300781 122.121094 208.722656 123.054688 213.863281 124.34375 " fill-opacity="1" fill-rule="nonzero"/><path fill="#f74026" d="M 373.113281 294.246094 L 381.605469 294.246094 L 385.851562 300.613281 C 385.664062 306.539062 385.664062 306.539062 383.730469 313.355469 C 380.625 318.179688 377.613281 322.46875 374.042969 326.898438 L 371.308594 330.40625 C 369.097656 333.230469 366.871094 336.042969 364.621094 338.84375 L 358.25 332.46875 L 354.964844 335.980469 C 342.1875 349.238281 328.589844 360.007812 313.660156 370.699219 C 311.453125 367.929688 309.332031 365.101562 307.289062 362.203125 L 307.289062 357.957031 C 311.335938 354.734375 311.335938 354.734375 316.847656 351.054688 C 326.589844 344.414062 336.144531 337.511719 345.511719 330.347656 L 343.386719 323.976562 C 351.046875 313.101562 360.898438 304.929688 370.988281 296.367188 Z M 373.113281 294.246094 " fill-opacity="1" fill-rule="nonzero"/><path fill="#fac703" d="M 123.089844 195.886719 C 128.929688 198.675781 128.929688 198.675781 135.296875 202.921875 L 135.296875 207.167969 L 139.015625 208.761719 C 144.496094 211.804688 148.167969 215.207031 152.289062 219.910156 L 152.289062 224.15625 L 158.65625 224.15625 L 160.78125 232.65625 L 152.289062 236.902344 L 150.164062 234.777344 L 148.042969 239.023438 C 143.925781 238.363281 143.925781 238.363281 139.542969 236.902344 L 137.421875 230.53125 L 133.175781 228.40625 L 133.175781 224.15625 C 129.574219 221.816406 129.574219 221.816406 124.683594 219.910156 L 118.183594 220.046875 L 111.941406 219.910156 C 107.960938 216.722656 107.960938 216.722656 105.574219 213.542969 L 99.203125 215.664062 L 97.082031 209.292969 C 98.140625 205.042969 98.140625 205.042969 101.328125 200.796875 C 109.429688 196.121094 113.816406 193.925781 123.089844 195.886719 " fill-opacity="1" fill-rule="nonzero"/><path fill="#69d46d" d="M 445.304688 277.253906 L 449.554688 279.378906 L 447.167969 283.09375 L 445.304688 287.871094 C 446.96875 292.621094 446.96875 292.621094 449.554688 296.367188 L 441.058594 300.613281 L 438.9375 294.246094 L 434.691406 294.246094 L 436.8125 304.859375 C 427.691406 313.160156 427.691406 313.160156 424.074219 315.480469 L 415.582031 315.480469 L 415.582031 311.234375 L 409.210938 311.234375 L 407.089844 315.480469 L 402.84375 315.480469 L 400.71875 302.738281 L 404.285156 300.175781 L 408.945312 296.761719 L 413.574219 293.402344 C 418.191406 289.925781 418.191406 289.925781 421.949219 283.625 L 428.851562 284.953125 C 436.492188 286.320312 436.492188 286.320312 441.988281 283.761719 L 445.304688 281.5 Z M 445.304688 277.253906 " fill-opacity="1" fill-rule="nonzero"/><path fill="#fad84d" d="M 145.917969 147.707031 C 159.519531 154.503906 169.820312 173.539062 178.03125 185.933594 C 181.765625 191.640625 181.765625 191.640625 184.136719 196.550781 L 182.011719 202.921875 L 175.644531 205.042969 C 173.925781 202.867188 172.214844 200.691406 170.441406 198.453125 L 163.566406 189.78125 L 160.152344 185.445312 C 153.695312 177.320312 147.265625 169.53125 139.542969 162.570312 L 135.296875 162.570312 C 131.492188 165.394531 131.492188 165.394531 127.601562 168.941406 L 123.539062 172.527344 L 120.4375 175.3125 C 123.726562 167.066406 128.9375 162.507812 135.5625 156.730469 L 141.421875 151.585938 Z M 145.917969 147.707031 " fill-opacity="1" fill-rule="nonzero"/><path fill="#f99f0c" d="M 145.917969 300.613281 C 147.242188 304.996094 147.242188 304.996094 148.042969 309.109375 C 139.582031 315.003906 132.734375 316.496094 122.558594 317.605469 C 119.714844 318.261719 116.875 318.945312 114.066406 319.726562 C 115.082031 325.964844 116.113281 332.148438 117.515625 338.3125 L 118.3125 343.089844 L 116.1875 347.335938 C 112.316406 346.925781 112.316406 346.925781 107.695312 345.214844 C 104.46875 340.582031 104.46875 340.582031 101.726562 334.859375 L 98.894531 329.167969 L 97.082031 323.976562 L 99.203125 317.605469 L 103.449219 323.976562 L 107.695312 323.976562 L 105.574219 311.234375 C 110.484375 306.855469 110.484375 306.855469 116.1875 302.738281 L 122.558594 304.859375 L 122.558594 300.613281 C 125.652344 300.203125 128.75 299.808594 131.847656 299.421875 L 137.074219 298.75 C 141.667969 298.492188 141.667969 298.492188 145.917969 300.613281 " fill-opacity="1" fill-rule="nonzero"/><path fill="#3aabc5" d="M 617.296875 141.332031 L 630.039062 145.578125 C 626.183594 156.761719 621.984375 165.546875 615.175781 175.3125 L 613.050781 181.683594 C 606.8125 180.089844 606.8125 180.089844 600.3125 177.433594 C 598.257812 173.917969 598.257812 173.917969 598.1875 168.941406 C 601.042969 163.972656 604.183594 159.195312 607.613281 154.605469 L 610.402344 150.734375 C 612.683594 147.585938 614.980469 144.449219 617.296875 141.332031 " fill-opacity="1" fill-rule="nonzero"/><path fill="#16d0ad" d="M 555.722656 362.203125 L 572.707031 362.203125 L 572.707031 368.578125 L 568.460938 368.578125 L 568.460938 381.316406 L 566.867188 377.335938 C 564.523438 372.515625 564.523438 372.515625 559.703125 370.167969 L 555.722656 368.578125 Z M 555.722656 362.203125 " fill-opacity="1" fill-rule="nonzero"/><path fill="#f99f0a" d="M 154.410156 304.859375 C 157.59375 307.253906 157.59375 307.253906 160.78125 311.234375 C 161.179688 318.003906 161.179688 318.003906 160.78125 323.976562 L 154.410156 323.976562 C 150.691406 318.933594 150.691406 318.933594 148.042969 313.355469 L 150.164062 309.109375 L 154.410156 309.109375 Z M 131.050781 317.605469 L 139.542969 317.605469 L 139.542969 323.976562 L 124.683594 328.222656 C 128.664062 319.992188 128.664062 319.992188 131.050781 317.605469 " fill-opacity="1" fill-rule="nonzero"/></svg>